<svg width="737" height="58" viewBox="0 0 737 58" fill="none" xmlns="http://www.w3.org/2000/svg">
<rect x="0.5" y="0.5" width="736" height="57" rx="28.5" fill="white"/>
<rect x="0.5" y="0.5" width="736" height="57" rx="28.5" stroke="#F6F6F6"/>
<path d="M36.636 20.894C36.7947 20.894 36.93 20.95 37.042 21.062C37.154 21.1647 37.21 21.2953 37.21 21.454C37.21 21.6127 37.154 21.7433 37.042 21.846C36.93 21.9487 36.7947 22 36.636 22H31.792C31.6333 22 31.498 21.944 31.386 21.832C31.2833 21.72 31.232 21.5847 31.232 21.426V12.76C31.232 12.6013 31.288 12.4707 31.4 12.368C31.512 12.256 31.652 12.2 31.82 12.2C31.9787 12.2 32.114 12.256 32.226 12.368C32.338 12.4707 32.394 12.6013 32.394 12.76V21.146L32.114 20.894H36.636ZM45.4979 18.36C45.4979 19.088 45.3346 19.7367 45.0079 20.306C44.6906 20.8753 44.2566 21.3233 43.7059 21.65C43.1646 21.9767 42.5532 22.14 41.8719 22.14C41.1906 22.14 40.5746 21.9767 40.0239 21.65C39.4732 21.3233 39.0346 20.8753 38.7079 20.306C38.3906 19.7367 38.2319 19.088 38.2319 18.36C38.2319 17.632 38.3906 16.9833 38.7079 16.414C39.0346 15.8447 39.4732 15.3967 40.0239 15.07C40.5746 14.7433 41.1906 14.58 41.8719 14.58C42.5532 14.58 43.1646 14.7433 43.7059 15.07C44.2566 15.3967 44.6906 15.8447 45.0079 16.414C45.3346 16.9833 45.4979 17.632 45.4979 18.36ZM44.3779 18.36C44.3779 17.8187 44.2659 17.3427 44.0419 16.932C43.8272 16.5213 43.5286 16.1993 43.1459 15.966C42.7726 15.7327 42.3479 15.616 41.8719 15.616C41.3959 15.616 40.9666 15.7327 40.5839 15.966C40.2106 16.1993 39.9119 16.5213 39.6879 16.932C39.4639 17.3427 39.3519 17.8187 39.3519 18.36C39.3519 18.892 39.4639 19.3633 39.6879 19.774C39.9119 20.1847 40.2106 20.5113 40.5839 20.754C40.9666 20.9873 41.3959 21.104 41.8719 21.104C42.3479 21.104 42.7726 20.9873 43.1459 20.754C43.5286 20.5113 43.8272 20.1847 44.0419 19.774C44.2659 19.3633 44.3779 18.892 44.3779 18.36ZM50.4025 14.58C50.8785 14.58 51.3078 14.6313 51.6905 14.734C52.0732 14.8367 52.3765 14.9767 52.6005 15.154C52.8245 15.3313 52.9365 15.532 52.9365 15.756C52.9365 15.8773 52.8945 15.994 52.8105 16.106C52.7265 16.218 52.6145 16.274 52.4745 16.274C52.3438 16.274 52.2365 16.2507 52.1525 16.204C52.0778 16.1573 52.0032 16.0967 51.9285 16.022C51.8632 15.9473 51.7698 15.882 51.6485 15.826C51.5365 15.7607 51.3732 15.7093 51.1585 15.672C50.9438 15.6347 50.7292 15.616 50.5145 15.616C50.0012 15.616 49.5485 15.7373 49.1565 15.98C48.7738 16.2227 48.4705 16.5493 48.2465 16.96C48.0225 17.3707 47.9105 17.8373 47.9105 18.36C47.9105 18.8827 48.0178 19.3493 48.2325 19.76C48.4472 20.1707 48.7458 20.4973 49.1285 20.74C49.5112 20.9827 49.9545 21.104 50.4585 21.104C50.7852 21.104 51.0465 21.076 51.2425 21.02C51.4385 20.964 51.6018 20.8987 51.7325 20.824C51.9005 20.7307 52.0265 20.6373 52.1105 20.544C52.2038 20.4507 52.3252 20.404 52.4745 20.404C52.6332 20.404 52.7545 20.4553 52.8385 20.558C52.9318 20.6607 52.9785 20.7867 52.9785 20.936C52.9785 21.104 52.8618 21.2813 52.6285 21.468C52.3952 21.6547 52.0778 21.8133 51.6765 21.944C51.2845 22.0747 50.8365 22.14 50.3325 22.14C49.6232 22.14 49.0025 21.9767 48.4705 21.65C47.9385 21.314 47.5232 20.8613 47.2245 20.292C46.9352 19.7133 46.7905 19.0693 46.7905 18.36C46.7905 17.6507 46.9398 17.0113 47.2385 16.442C47.5465 15.8727 47.9712 15.42 48.5125 15.084C49.0538 14.748 49.6838 14.58 50.4025 14.58ZM60.4062 14.692C60.5649 14.692 60.6956 14.748 60.7982 14.86C60.9103 14.9627 60.9663 15.0933 60.9663 15.252V21.426C60.9663 21.5847 60.9103 21.72 60.7982 21.832C60.6956 21.944 60.5649 22 60.4062 22C60.2383 22 60.1029 21.944 60.0003 21.832C59.8976 21.72 59.8463 21.5847 59.8463 21.426V20.096L60.1123 20.068C60.1123 20.2733 60.0423 20.4973 59.9023 20.74C59.7623 20.9827 59.5709 21.2113 59.3283 21.426C59.0856 21.6313 58.7963 21.804 58.4603 21.944C58.1336 22.0747 57.7789 22.14 57.3963 22.14C56.7616 22.14 56.1923 21.9767 55.6883 21.65C55.1843 21.314 54.7829 20.8613 54.4843 20.292C54.1949 19.7227 54.0503 19.074 54.0503 18.346C54.0503 17.6087 54.1949 16.96 54.4843 16.4C54.7829 15.8307 55.1843 15.3873 55.6883 15.07C56.1923 14.7433 56.7523 14.58 57.3683 14.58C57.7696 14.58 58.1429 14.6453 58.4883 14.776C58.8336 14.9067 59.1323 15.084 59.3843 15.308C59.6456 15.532 59.8463 15.7793 59.9863 16.05C60.1356 16.3207 60.2103 16.5913 60.2103 16.862L59.8463 16.778V15.252C59.8463 15.0933 59.8976 14.9627 60.0003 14.86C60.1029 14.748 60.2383 14.692 60.4062 14.692ZM57.5222 21.104C57.9889 21.104 58.3996 20.9827 58.7543 20.74C59.1183 20.4973 59.3983 20.1707 59.5943 19.76C59.7996 19.34 59.9023 18.8687 59.9023 18.346C59.9023 17.8327 59.7996 17.3707 59.5943 16.96C59.3983 16.54 59.1183 16.2133 58.7543 15.98C58.3996 15.7373 57.9889 15.616 57.5222 15.616C57.0649 15.616 56.6543 15.7327 56.2903 15.966C55.9356 16.1993 55.6556 16.5213 55.4503 16.932C55.2449 17.3427 55.1423 17.814 55.1423 18.346C55.1423 18.8687 55.2403 19.34 55.4363 19.76C55.6416 20.1707 55.9216 20.4973 56.2763 20.74C56.6403 20.9827 57.0556 21.104 57.5222 21.104ZM62.7619 14.804H66.0519C66.2012 14.804 66.3225 14.8553 66.4159 14.958C66.5185 15.0607 66.5699 15.182 66.5699 15.322C66.5699 15.4713 66.5185 15.5973 66.4159 15.7C66.3225 15.7933 66.2012 15.84 66.0519 15.84H62.7619C62.6219 15.84 62.5005 15.7887 62.3979 15.686C62.2952 15.5833 62.2439 15.4573 62.2439 15.308C62.2439 15.168 62.2952 15.0513 62.3979 14.958C62.5005 14.8553 62.6219 14.804 62.7619 14.804ZM64.2319 12.9C64.3905 12.9 64.5212 12.956 64.6239 13.068C64.7265 13.1707 64.7779 13.3013 64.7779 13.46V20.222C64.7779 20.446 64.8105 20.614 64.8759 20.726C64.9412 20.838 65.0252 20.9173 65.1279 20.964C65.2399 21.0013 65.3472 21.02 65.4499 21.02C65.5432 21.02 65.6225 21.006 65.6879 20.978C65.7625 20.9407 65.8465 20.922 65.9399 20.922C66.0332 20.922 66.1172 20.9687 66.1919 21.062C66.2759 21.146 66.3179 21.258 66.3179 21.398C66.3179 21.566 66.2199 21.7107 66.0239 21.832C65.8279 21.944 65.6085 22 65.3659 22C65.2352 22 65.0719 21.9907 64.8759 21.972C64.6892 21.9533 64.5025 21.8927 64.3159 21.79C64.1292 21.6873 63.9705 21.5193 63.8399 21.286C63.7185 21.0433 63.6579 20.7073 63.6579 20.278V13.46C63.6579 13.3013 63.7139 13.1707 63.8259 13.068C63.9379 12.956 64.0732 12.9 64.2319 12.9ZM69.2058 21.426C69.2058 21.5847 69.1498 21.72 69.0378 21.832C68.9351 21.944 68.8045 22 68.6458 22C68.4778 22 68.3425 21.944 68.2398 21.832C68.1371 21.72 68.0858 21.5847 68.0858 21.426V15.21C68.0858 15.0513 68.1371 14.9207 68.2398 14.818C68.3518 14.706 68.4871 14.65 68.6458 14.65C68.8045 14.65 68.9351 14.706 69.0378 14.818C69.1498 14.9207 69.2058 15.0513 69.2058 15.21V21.426ZM68.6458 13.712C68.4125 13.712 68.2398 13.6653 68.1278 13.572C68.0158 13.4787 67.9598 13.334 67.9598 13.138V12.942C67.9598 12.746 68.0205 12.6013 68.1418 12.508C68.2631 12.4147 68.4358 12.368 68.6598 12.368C68.8838 12.368 69.0518 12.4147 69.1638 12.508C69.2758 12.6013 69.3318 12.746 69.3318 12.942V13.138C69.3318 13.334 69.2711 13.4787 69.1498 13.572C69.0378 13.6653 68.8698 13.712 68.6458 13.712ZM78.0916 18.36C78.0916 19.088 77.9283 19.7367 77.6016 20.306C77.2843 20.8753 76.8503 21.3233 76.2996 21.65C75.7583 21.9767 75.147 22.14 74.4656 22.14C73.7843 22.14 73.1683 21.9767 72.6176 21.65C72.067 21.3233 71.6283 20.8753 71.3016 20.306C70.9843 19.7367 70.8256 19.088 70.8256 18.36C70.8256 17.632 70.9843 16.9833 71.3016 16.414C71.6283 15.8447 72.067 15.3967 72.6176 15.07C73.1683 14.7433 73.7843 14.58 74.4656 14.58C75.147 14.58 75.7583 14.7433 76.2996 15.07C76.8503 15.3967 77.2843 15.8447 77.6016 16.414C77.9283 16.9833 78.0916 17.632 78.0916 18.36ZM76.9716 18.36C76.9716 17.8187 76.8596 17.3427 76.6356 16.932C76.421 16.5213 76.1223 16.1993 75.7396 15.966C75.3663 15.7327 74.9416 15.616 74.4656 15.616C73.9896 15.616 73.5603 15.7327 73.1776 15.966C72.8043 16.1993 72.5056 16.5213 72.2816 16.932C72.0576 17.3427 71.9456 17.8187 71.9456 18.36C71.9456 18.892 72.0576 19.3633 72.2816 19.774C72.5056 20.1847 72.8043 20.5113 73.1776 20.754C73.5603 20.9873 73.9896 21.104 74.4656 21.104C74.9416 21.104 75.3663 20.9873 75.7396 20.754C76.1223 20.5113 76.421 20.1847 76.6356 19.774C76.8596 19.3633 76.9716 18.892 76.9716 18.36ZM83.3742 14.58C84.0089 14.58 84.5082 14.7107 84.8722 14.972C85.2362 15.2333 85.4929 15.5833 85.6422 16.022C85.8009 16.4607 85.8802 16.9507 85.8802 17.492V21.426C85.8802 21.5847 85.8242 21.72 85.7122 21.832C85.6096 21.944 85.4789 22 85.3202 22C85.1616 22 85.0262 21.944 84.9142 21.832C84.8116 21.72 84.7602 21.5847 84.7602 21.426V17.52C84.7602 17.1653 84.7042 16.848 84.5922 16.568C84.4896 16.2787 84.3122 16.05 84.0602 15.882C83.8176 15.7047 83.4816 15.616 83.0522 15.616C82.6602 15.616 82.3009 15.7047 81.9742 15.882C81.6476 16.05 81.3862 16.2787 81.1902 16.568C80.9942 16.848 80.8962 17.1653 80.8962 17.52V21.426C80.8962 21.5847 80.8402 21.72 80.7282 21.832C80.6256 21.944 80.4949 22 80.3362 22C80.1776 22 80.0422 21.944 79.9302 21.832C79.8276 21.72 79.7762 21.5847 79.7762 21.426V15.322C79.7762 15.1633 79.8276 15.0327 79.9302 14.93C80.0422 14.818 80.1776 14.762 80.3362 14.762C80.5042 14.762 80.6396 14.818 80.7422 14.93C80.8449 15.0327 80.8962 15.1633 80.8962 15.322V16.316L80.6162 16.624C80.6629 16.3813 80.7702 16.1387 80.9382 15.896C81.1062 15.644 81.3162 15.42 81.5682 15.224C81.8202 15.028 82.1002 14.874 82.4082 14.762C82.7162 14.6407 83.0382 14.58 83.3742 14.58Z" fill="#161117"/>
<path d="M33.731 45.13C33.0723 45.1387 32.5003 45.0347 32.015 44.818C31.5297 44.6013 31.066 44.2763 30.624 43.843C30.5807 43.8083 30.5417 43.765 30.507 43.713C30.481 43.661 30.468 43.6003 30.468 43.531C30.468 43.427 30.507 43.3317 30.585 43.245C30.6717 43.1583 30.767 43.115 30.871 43.115C30.975 43.115 31.0703 43.1583 31.157 43.245C31.495 43.609 31.8763 43.8863 32.301 44.077C32.7343 44.2677 33.198 44.363 33.692 44.363C34.108 44.363 34.4763 44.298 34.797 44.168C35.1263 44.038 35.3863 43.8517 35.577 43.609C35.7677 43.3663 35.863 43.0847 35.863 42.764C35.863 42.3653 35.7547 42.0447 35.538 41.802C35.3213 41.5507 35.0353 41.347 34.68 41.191C34.3247 41.0263 33.9303 40.879 33.497 40.749C33.1417 40.645 32.8037 40.528 32.483 40.398C32.1623 40.2593 31.8763 40.0947 31.625 39.904C31.3737 39.7047 31.1787 39.462 31.04 39.176C30.9013 38.89 30.832 38.5433 30.832 38.136C30.832 37.6767 30.9533 37.2693 31.196 36.914C31.4387 36.5587 31.781 36.2813 32.223 36.082C32.6737 35.874 33.1937 35.77 33.783 35.77C34.2943 35.77 34.784 35.8567 35.252 36.03C35.7287 36.2033 36.1057 36.459 36.383 36.797C36.513 36.9357 36.578 37.0613 36.578 37.174C36.578 37.2607 36.5347 37.3473 36.448 37.434C36.3613 37.5207 36.266 37.564 36.162 37.564C36.0753 37.564 36.0017 37.5337 35.941 37.473C35.7937 37.291 35.6073 37.1307 35.382 36.992C35.1567 36.8447 34.9053 36.732 34.628 36.654C34.3593 36.576 34.0777 36.537 33.783 36.537C33.3757 36.537 33.0073 36.602 32.678 36.732C32.3573 36.8533 32.1017 37.031 31.911 37.265C31.729 37.499 31.638 37.7807 31.638 38.11C31.638 38.474 31.742 38.773 31.95 39.007C32.158 39.241 32.431 39.436 32.769 39.592C33.107 39.7393 33.4667 39.878 33.848 40.008C34.2207 40.112 34.576 40.2333 34.914 40.372C35.2607 40.502 35.564 40.6667 35.824 40.866C36.0927 41.0653 36.3007 41.3167 36.448 41.62C36.604 41.9233 36.682 42.3047 36.682 42.764C36.682 43.206 36.5563 43.6047 36.305 43.96C36.0537 44.3153 35.707 44.597 35.265 44.805C34.8317 45.013 34.3203 45.1213 33.731 45.13ZM41.3298 45.13C40.6625 45.13 40.0731 44.987 39.5618 44.701C39.0505 44.415 38.6518 44.0163 38.3658 43.505C38.0798 42.9937 37.9368 42.3957 37.9368 41.711C37.9368 40.9743 38.0798 40.346 38.3658 39.826C38.6605 39.306 39.0375 38.9073 39.4968 38.63C39.9648 38.344 40.4588 38.201 40.9788 38.201C41.3601 38.201 41.7285 38.2703 42.0838 38.409C42.4478 38.539 42.7685 38.7383 43.0458 39.007C43.3318 39.267 43.5571 39.5877 43.7218 39.969C43.8951 40.3503 43.9905 40.7923 44.0078 41.295C43.9991 41.399 43.9558 41.49 43.8778 41.568C43.7998 41.6373 43.7088 41.672 43.6048 41.672H38.3918L38.2358 40.97H43.3578L43.1888 41.126V40.866C43.1541 40.4587 43.0241 40.112 42.7988 39.826C42.5735 39.54 42.3005 39.3233 41.9798 39.176C41.6591 39.0287 41.3255 38.955 40.9788 38.955C40.7188 38.955 40.4501 39.007 40.1728 39.111C39.9041 39.215 39.6571 39.3797 39.4318 39.605C39.2151 39.8217 39.0375 40.1033 38.8988 40.45C38.7601 40.788 38.6908 41.191 38.6908 41.659C38.6908 42.1703 38.7948 42.634 39.0028 43.05C39.2108 43.466 39.5098 43.7953 39.8998 44.038C40.2985 44.2807 40.7708 44.402 41.3168 44.402C41.6201 44.402 41.8931 44.3587 42.1358 44.272C42.3785 44.1853 42.5908 44.0727 42.7728 43.934C42.9548 43.7867 43.1065 43.635 43.2278 43.479C43.3231 43.401 43.4185 43.362 43.5138 43.362C43.6005 43.362 43.6741 43.3967 43.7348 43.466C43.8041 43.5353 43.8388 43.6133 43.8388 43.7C43.8388 43.804 43.7955 43.895 43.7088 43.973C43.4488 44.285 43.1108 44.558 42.6948 44.792C42.2788 45.0173 41.8238 45.13 41.3298 45.13ZM51.1752 38.357C51.2878 38.357 51.3788 38.396 51.4482 38.474C51.5262 38.552 51.5652 38.6473 51.5652 38.76V44.61C51.5652 44.714 51.5262 44.805 51.4482 44.883C51.3702 44.961 51.2792 45 51.1752 45C51.0625 45 50.9672 44.961 50.8892 44.883C50.8198 44.805 50.7852 44.714 50.7852 44.61V43.063L51.0062 42.959C51.0062 43.2017 50.9368 43.4487 50.7982 43.7C50.6682 43.9513 50.4862 44.1853 50.2522 44.402C50.0182 44.6187 49.7408 44.7963 49.4202 44.935C49.1082 45.065 48.7702 45.13 48.4062 45.13C47.8168 45.13 47.2882 44.9783 46.8202 44.675C46.3608 44.3717 45.9968 43.9557 45.7282 43.427C45.4682 42.8983 45.3382 42.3047 45.3382 41.646C45.3382 40.97 45.4725 40.3763 45.7412 39.865C46.0098 39.345 46.3738 38.9377 46.8332 38.643C47.2925 38.3483 47.8125 38.201 48.3932 38.201C48.7658 38.201 49.1125 38.266 49.4332 38.396C49.7625 38.526 50.0485 38.7037 50.2912 38.929C50.5338 39.1543 50.7202 39.4143 50.8502 39.709C50.9888 39.995 51.0582 40.294 51.0582 40.606L50.7852 40.411V38.76C50.7852 38.6473 50.8198 38.552 50.8892 38.474C50.9672 38.396 51.0625 38.357 51.1752 38.357ZM48.4712 44.402C48.9305 44.402 49.3378 44.285 49.6932 44.051C50.0485 43.8083 50.3258 43.479 50.5252 43.063C50.7332 42.6383 50.8372 42.166 50.8372 41.646C50.8372 41.1347 50.7332 40.6753 50.5252 40.268C50.3258 39.8607 50.0485 39.5357 49.6932 39.293C49.3378 39.0503 48.9305 38.929 48.4712 38.929C48.0205 38.929 47.6132 39.046 47.2492 39.28C46.8938 39.514 46.6122 39.8347 46.4042 40.242C46.2048 40.6493 46.1052 41.1173 46.1052 41.646C46.1052 42.166 46.2048 42.6383 46.4042 43.063C46.6122 43.479 46.8938 43.8083 47.2492 44.051C47.6045 44.285 48.0118 44.402 48.4712 44.402ZM54.002 45C53.8806 45 53.7853 44.961 53.716 44.883C53.6466 44.805 53.612 44.714 53.612 44.61V38.786C53.612 38.682 53.6466 38.591 53.716 38.513C53.794 38.435 53.8893 38.396 54.002 38.396C54.1146 38.396 54.2056 38.435 54.275 38.513C54.353 38.591 54.392 38.682 54.392 38.786V40.736L54.197 40.775C54.223 40.4717 54.2966 40.1727 54.418 39.878C54.548 39.5747 54.7213 39.2973 54.938 39.046C55.1546 38.7947 55.4103 38.591 55.705 38.435C56.0083 38.279 56.3463 38.201 56.719 38.201C56.875 38.201 57.0266 38.2357 57.174 38.305C57.3213 38.3657 57.395 38.4697 57.395 38.617C57.395 38.747 57.3603 38.8467 57.291 38.916C57.2216 38.9853 57.1393 39.02 57.044 39.02C56.966 39.02 56.8793 38.9983 56.784 38.955C56.6973 38.9117 56.5803 38.89 56.433 38.89C56.1903 38.89 55.9476 38.9637 55.705 39.111C55.4623 39.2497 55.2413 39.4403 55.042 39.683C54.8426 39.9257 54.6823 40.1987 54.561 40.502C54.4483 40.7967 54.392 41.0957 54.392 41.399V44.61C54.392 44.714 54.353 44.805 54.275 44.883C54.197 44.961 54.106 45 54.002 45ZM61.2469 38.201C61.6629 38.201 62.0443 38.2487 62.3909 38.344C62.7376 38.4307 63.0149 38.552 63.2229 38.708C63.4396 38.864 63.5479 39.033 63.5479 39.215C63.5479 39.3017 63.5176 39.3883 63.4569 39.475C63.3963 39.553 63.3139 39.592 63.2099 39.592C63.1059 39.592 63.0193 39.566 62.9499 39.514C62.8893 39.462 62.8243 39.4013 62.7549 39.332C62.6943 39.2627 62.6033 39.1977 62.4819 39.137C62.3693 39.085 62.2089 39.0373 62.0009 38.994C61.7929 38.9507 61.5546 38.929 61.2859 38.929C60.8006 38.929 60.3629 39.0503 59.9729 39.293C59.5829 39.5357 59.2753 39.865 59.0499 40.281C58.8246 40.6883 58.7119 41.1477 58.7119 41.659C58.7119 42.179 58.8203 42.647 59.0369 43.063C59.2536 43.479 59.5526 43.8083 59.9339 44.051C60.3153 44.285 60.7616 44.402 61.2729 44.402C61.6196 44.402 61.8883 44.3717 62.0789 44.311C62.2696 44.2503 62.4343 44.181 62.5729 44.103C62.7376 44.0077 62.8546 43.9167 62.9239 43.83C63.0019 43.7347 63.1016 43.687 63.2229 43.687C63.3356 43.687 63.4179 43.7217 63.4699 43.791C63.5306 43.8517 63.5609 43.934 63.5609 44.038C63.5609 44.1767 63.4569 44.3327 63.2489 44.506C63.0496 44.6707 62.7723 44.818 62.4169 44.948C62.0616 45.0693 61.6543 45.13 61.1949 45.13C60.5449 45.13 59.9729 44.9783 59.4789 44.675C58.9936 44.3717 58.6123 43.96 58.3349 43.44C58.0663 42.9113 57.9319 42.3177 57.9319 41.659C57.9319 41.0263 58.0706 40.45 58.3479 39.93C58.6253 39.41 59.0109 38.994 59.5049 38.682C60.0076 38.3613 60.5883 38.201 61.2469 38.201ZM68.0794 38.305C68.6254 38.305 69.0674 38.422 69.4054 38.656C69.7434 38.89 69.9904 39.2063 70.1464 39.605C70.3111 40.0037 70.3934 40.4457 70.3934 40.931V44.61C70.3934 44.714 70.3544 44.805 70.2764 44.883C70.1984 44.961 70.1074 45 70.0034 45C69.8821 45 69.7868 44.961 69.7174 44.883C69.6481 44.805 69.6134 44.714 69.6134 44.61V40.931C69.6134 40.5757 69.5571 40.255 69.4444 39.969C69.3404 39.683 69.1671 39.4577 68.9244 39.293C68.6818 39.1197 68.3568 39.033 67.9494 39.033C67.5854 39.033 67.2388 39.1197 66.9094 39.293C66.5888 39.4577 66.3288 39.683 66.1294 39.969C65.9301 40.255 65.8304 40.5757 65.8304 40.931V44.61C65.8304 44.714 65.7914 44.805 65.7134 44.883C65.6354 44.961 65.5444 45 65.4404 45C65.3191 45 65.2238 44.961 65.1544 44.883C65.0851 44.805 65.0504 44.714 65.0504 44.61V35.77C65.0504 35.666 65.0851 35.575 65.1544 35.497C65.2324 35.419 65.3278 35.38 65.4404 35.38C65.5531 35.38 65.6441 35.419 65.7134 35.497C65.7914 35.575 65.8304 35.666 65.8304 35.77V39.982L65.5314 40.437C65.5488 40.1683 65.6311 39.9083 65.7784 39.657C65.9344 39.397 66.1338 39.1673 66.3764 38.968C66.6191 38.76 66.8878 38.5997 67.1824 38.487C67.4771 38.3657 67.7761 38.305 68.0794 38.305ZM78.3988 35.432C78.5288 35.432 78.6675 35.445 78.8148 35.471C78.9708 35.497 79.1051 35.5447 79.2178 35.614C79.3305 35.6747 79.3868 35.77 79.3868 35.9C79.3868 35.9953 79.3521 36.082 79.2828 36.16C79.2135 36.2293 79.1355 36.264 79.0488 36.264C78.9621 36.264 78.8538 36.2423 78.7238 36.199C78.5938 36.147 78.4551 36.121 78.3078 36.121C78.1258 36.121 77.9698 36.1643 77.8398 36.251C77.7098 36.329 77.6101 36.446 77.5408 36.602C77.4715 36.7493 77.4368 36.9313 77.4368 37.148V44.61C77.4368 44.714 77.3978 44.805 77.3198 44.883C77.2505 44.961 77.1595 45 77.0468 45C76.9341 45 76.8388 44.961 76.7608 44.883C76.6915 44.805 76.6568 44.714 76.6568 44.61V37.148C76.6568 36.5933 76.8171 36.1687 77.1378 35.874C77.4671 35.5793 77.8875 35.432 78.3988 35.432ZM78.8928 38.487C78.9968 38.487 79.0835 38.5217 79.1528 38.591C79.2221 38.6603 79.2568 38.747 79.2568 38.851C79.2568 38.955 79.2221 39.0417 79.1528 39.111C79.0835 39.1803 78.9968 39.215 78.8928 39.215H75.7078C75.6125 39.215 75.5258 39.1803 75.4478 39.111C75.3785 39.033 75.3438 38.9463 75.3438 38.851C75.3438 38.7383 75.3785 38.6517 75.4478 38.591C75.5258 38.5217 75.6125 38.487 75.7078 38.487H78.8928ZM86.3839 41.672C86.3839 42.3307 86.2409 42.9243 85.9549 43.453C85.6689 43.973 85.2789 44.3847 84.7849 44.688C84.2909 44.9827 83.7276 45.13 83.0949 45.13C82.4796 45.13 81.9206 44.9827 81.4179 44.688C80.9239 44.3847 80.5296 43.973 80.2349 43.453C79.9489 42.9243 79.8059 42.3307 79.8059 41.672C79.8059 41.0047 79.9489 40.411 80.2349 39.891C80.5296 39.371 80.9239 38.9593 81.4179 38.656C81.9206 38.3527 82.4796 38.201 83.0949 38.201C83.7276 38.201 84.2909 38.3527 84.7849 38.656C85.2789 38.9593 85.6689 39.371 85.9549 39.891C86.2409 40.411 86.3839 41.0047 86.3839 41.672ZM85.6039 41.672C85.6039 41.1433 85.4956 40.6753 85.2789 40.268C85.0623 39.852 84.7633 39.527 84.3819 39.293C84.0093 39.0503 83.5803 38.929 83.0949 38.929C82.6269 38.929 82.2023 39.0503 81.8209 39.293C81.4396 39.527 81.1363 39.852 80.9109 40.268C80.6943 40.6753 80.5859 41.1433 80.5859 41.672C80.5859 42.2007 80.6943 42.6687 80.9109 43.076C81.1363 43.4833 81.4396 43.8083 81.8209 44.051C82.2023 44.285 82.6269 44.402 83.0949 44.402C83.5803 44.402 84.0093 44.285 84.3819 44.051C84.7633 43.8083 85.0623 43.4833 85.2789 43.076C85.4956 42.6687 85.6039 42.2007 85.6039 41.672ZM88.4316 45C88.3103 45 88.215 44.961 88.1456 44.883C88.0763 44.805 88.0416 44.714 88.0416 44.61V38.786C88.0416 38.682 88.0763 38.591 88.1456 38.513C88.2236 38.435 88.319 38.396 88.4316 38.396C88.5443 38.396 88.6353 38.435 88.7046 38.513C88.7826 38.591 88.8216 38.682 88.8216 38.786V40.736L88.6266 40.775C88.6526 40.4717 88.7263 40.1727 88.8476 39.878C88.9776 39.5747 89.151 39.2973 89.3676 39.046C89.5843 38.7947 89.84 38.591 90.1346 38.435C90.438 38.279 90.776 38.201 91.1486 38.201C91.3046 38.201 91.4563 38.2357 91.6036 38.305C91.751 38.3657 91.8246 38.4697 91.8246 38.617C91.8246 38.747 91.79 38.8467 91.7206 38.916C91.6513 38.9853 91.569 39.02 91.4736 39.02C91.3956 39.02 91.309 38.9983 91.2136 38.955C91.127 38.9117 91.01 38.89 90.8626 38.89C90.62 38.89 90.3773 38.9637 90.1346 39.111C89.892 39.2497 89.671 39.4403 89.4716 39.683C89.2723 39.9257 89.112 40.1987 88.9906 40.502C88.878 40.7967 88.8216 41.0957 88.8216 41.399V44.61C88.8216 44.714 88.7826 44.805 88.7046 44.883C88.6266 44.961 88.5356 45 88.4316 45ZM102.045 35.38C102.158 35.38 102.249 35.419 102.318 35.497C102.396 35.5663 102.435 35.6573 102.435 35.77V44.61C102.435 44.714 102.396 44.805 102.318 44.883C102.24 44.961 102.149 45 102.045 45C101.933 45 101.837 44.961 101.759 44.883C101.69 44.805 101.655 44.714 101.655 44.61V43.063L101.876 42.881C101.876 43.1237 101.811 43.3793 101.681 43.648C101.551 43.908 101.365 44.1507 101.122 44.376C100.888 44.6013 100.611 44.7833 100.29 44.922C99.9783 45.0607 99.6403 45.13 99.2763 45.13C98.6956 45.13 98.1713 44.9783 97.7033 44.675C97.244 44.3717 96.88 43.96 96.6113 43.44C96.3426 42.92 96.2083 42.3263 96.2083 41.659C96.2083 41.0003 96.3426 40.411 96.6113 39.891C96.88 39.3623 97.244 38.9507 97.7033 38.656C98.1626 38.3527 98.6826 38.201 99.2633 38.201C99.6186 38.201 99.9566 38.266 100.277 38.396C100.598 38.526 100.88 38.7037 101.122 38.929C101.374 39.1543 101.569 39.4143 101.707 39.709C101.855 39.995 101.928 40.294 101.928 40.606L101.655 40.411V35.77C101.655 35.666 101.69 35.575 101.759 35.497C101.837 35.419 101.933 35.38 102.045 35.38ZM99.3413 44.402C99.8093 44.402 100.217 44.285 100.563 44.051C100.919 43.8083 101.196 43.4833 101.395 43.076C101.603 42.66 101.707 42.1877 101.707 41.659C101.707 41.139 101.603 40.6753 101.395 40.268C101.196 39.852 100.919 39.527 100.563 39.293C100.208 39.0503 99.8006 38.929 99.3413 38.929C98.8906 38.929 98.4833 39.0503 98.1193 39.293C97.764 39.527 97.4823 39.852 97.2743 40.268C97.075 40.6753 96.9753 41.139 96.9753 41.659C96.9753 42.179 97.075 42.647 97.2743 43.063C97.4823 43.479 97.764 43.8083 98.1193 44.051C98.4833 44.285 98.8906 44.402 99.3413 44.402ZM107.485 45.13C106.818 45.13 106.228 44.987 105.717 44.701C105.206 44.415 104.807 44.0163 104.521 43.505C104.235 42.9937 104.092 42.3957 104.092 41.711C104.092 40.9743 104.235 40.346 104.521 39.826C104.816 39.306 105.193 38.9073 105.652 38.63C106.12 38.344 106.614 38.201 107.134 38.201C107.515 38.201 107.884 38.2703 108.239 38.409C108.603 38.539 108.924 38.7383 109.201 39.007C109.487 39.267 109.712 39.5877 109.877 39.969C110.05 40.3503 110.146 40.7923 110.163 41.295C110.154 41.399 110.111 41.49 110.033 41.568C109.955 41.6373 109.864 41.672 109.76 41.672H104.547L104.391 40.97H109.513L109.344 41.126V40.866C109.309 40.4587 109.179 40.112 108.954 39.826C108.729 39.54 108.456 39.3233 108.135 39.176C107.814 39.0287 107.481 38.955 107.134 38.955C106.874 38.955 106.605 39.007 106.328 39.111C106.059 39.215 105.812 39.3797 105.587 39.605C105.37 39.8217 105.193 40.1033 105.054 40.45C104.915 40.788 104.846 41.191 104.846 41.659C104.846 42.1703 104.95 42.634 105.158 43.05C105.366 43.466 105.665 43.7953 106.055 44.038C106.454 44.2807 106.926 44.402 107.472 44.402C107.775 44.402 108.048 44.3587 108.291 44.272C108.534 44.1853 108.746 44.0727 108.928 43.934C109.11 43.7867 109.262 43.635 109.383 43.479C109.478 43.401 109.574 43.362 109.669 43.362C109.756 43.362 109.829 43.3967 109.89 43.466C109.959 43.5353 109.994 43.6133 109.994 43.7C109.994 43.804 109.951 43.895 109.864 43.973C109.604 44.285 109.266 44.558 108.85 44.792C108.434 45.0173 107.979 45.13 107.485 45.13ZM111.456 43.947C111.386 43.843 111.352 43.7433 111.352 43.648C111.36 43.544 111.417 43.4617 111.521 43.401C111.59 43.3403 111.668 43.3143 111.755 43.323C111.85 43.3317 111.937 43.375 112.015 43.453C112.249 43.7563 112.53 44.0033 112.86 44.194C113.198 44.376 113.596 44.467 114.056 44.467C114.298 44.467 114.537 44.428 114.771 44.35C115.013 44.2633 115.213 44.1377 115.369 43.973C115.525 43.7997 115.603 43.583 115.603 43.323C115.603 43.0543 115.525 42.8377 115.369 42.673C115.213 42.5083 115.009 42.3783 114.758 42.283C114.515 42.1877 114.255 42.1053 113.978 42.036C113.683 41.958 113.397 41.8713 113.12 41.776C112.842 41.672 112.595 41.5463 112.379 41.399C112.171 41.243 112.002 41.0567 111.872 40.84C111.742 40.6233 111.677 40.359 111.677 40.047C111.677 39.683 111.776 39.3623 111.976 39.085C112.175 38.8077 112.444 38.591 112.782 38.435C113.128 38.279 113.518 38.201 113.952 38.201C114.168 38.201 114.402 38.2313 114.654 38.292C114.905 38.344 115.152 38.435 115.395 38.565C115.637 38.695 115.854 38.8727 116.045 39.098C116.123 39.176 116.162 39.267 116.162 39.371C116.162 39.4663 116.118 39.553 116.032 39.631C115.962 39.683 115.88 39.709 115.785 39.709C115.698 39.709 115.624 39.6743 115.564 39.605C115.356 39.371 115.109 39.1933 114.823 39.072C114.537 38.9507 114.229 38.89 113.9 38.89C113.648 38.89 113.41 38.9333 113.185 39.02C112.968 39.098 112.786 39.2193 112.639 39.384C112.491 39.5487 112.418 39.7653 112.418 40.034C112.435 40.2853 112.522 40.489 112.678 40.645C112.842 40.801 113.055 40.931 113.315 41.035C113.583 41.139 113.882 41.2343 114.212 41.321C114.489 41.3903 114.753 41.4727 115.005 41.568C115.265 41.6633 115.49 41.7847 115.681 41.932C115.88 42.0707 116.036 42.2483 116.149 42.465C116.27 42.6817 116.331 42.9547 116.331 43.284C116.331 43.6653 116.222 43.9947 116.006 44.272C115.798 44.5493 115.516 44.7617 115.161 44.909C114.805 45.0563 114.411 45.13 113.978 45.13C113.51 45.13 113.055 45.039 112.613 44.857C112.179 44.675 111.794 44.3717 111.456 43.947ZM117.497 38.383H120.526C120.63 38.383 120.717 38.422 120.786 38.5C120.856 38.5693 120.89 38.656 120.89 38.76C120.89 38.8553 120.856 38.9377 120.786 39.007C120.717 39.0763 120.63 39.111 120.526 39.111H117.497C117.393 39.111 117.302 39.0763 117.224 39.007C117.155 38.929 117.12 38.8423 117.12 38.747C117.12 38.643 117.155 38.5563 117.224 38.487C117.302 38.4177 117.393 38.383 117.497 38.383ZM118.836 36.55C118.949 36.55 119.04 36.589 119.109 36.667C119.187 36.745 119.226 36.836 119.226 36.94V43.466C119.226 43.7087 119.257 43.8907 119.317 44.012C119.387 44.1333 119.473 44.2157 119.577 44.259C119.681 44.2937 119.785 44.311 119.889 44.311C119.959 44.311 120.019 44.3023 120.071 44.285C120.132 44.259 120.197 44.246 120.266 44.246C120.344 44.246 120.409 44.2763 120.461 44.337C120.522 44.3977 120.552 44.4757 120.552 44.571C120.552 44.6923 120.483 44.7963 120.344 44.883C120.206 44.961 120.041 45 119.85 45C119.772 45 119.655 44.9957 119.499 44.987C119.343 44.9697 119.183 44.922 119.018 44.844C118.854 44.7573 118.715 44.61 118.602 44.402C118.498 44.194 118.446 43.895 118.446 43.505V36.94C118.446 36.836 118.481 36.745 118.55 36.667C118.628 36.589 118.724 36.55 118.836 36.55ZM123.086 44.61C123.086 44.714 123.047 44.805 122.969 44.883C122.891 44.961 122.8 45 122.696 45C122.583 45 122.488 44.961 122.41 44.883C122.34 44.805 122.306 44.714 122.306 44.61V38.63C122.306 38.526 122.34 38.435 122.41 38.357C122.488 38.279 122.583 38.24 122.696 38.24C122.808 38.24 122.899 38.279 122.969 38.357C123.047 38.435 123.086 38.526 123.086 38.63V44.61ZM122.696 37.369C122.514 37.369 122.375 37.33 122.28 37.252C122.193 37.1653 122.15 37.044 122.15 36.888V36.758C122.15 36.602 122.197 36.485 122.293 36.407C122.397 36.3203 122.535 36.277 122.709 36.277C122.873 36.277 122.999 36.3203 123.086 36.407C123.181 36.485 123.229 36.602 123.229 36.758V36.888C123.229 37.044 123.181 37.1653 123.086 37.252C122.999 37.33 122.869 37.369 122.696 37.369ZM128.245 38.201C128.817 38.201 129.272 38.318 129.61 38.552C129.957 38.7773 130.204 39.0893 130.351 39.488C130.507 39.878 130.585 40.3113 130.585 40.788V44.61C130.585 44.714 130.546 44.805 130.468 44.883C130.39 44.961 130.299 45 130.195 45C130.074 45 129.978 44.961 129.909 44.883C129.84 44.805 129.805 44.714 129.805 44.61V40.827C129.805 40.4803 129.749 40.164 129.636 39.878C129.523 39.592 129.337 39.3623 129.077 39.189C128.826 39.0157 128.492 38.929 128.076 38.929C127.703 38.929 127.348 39.0157 127.01 39.189C126.681 39.3623 126.412 39.592 126.204 39.878C125.996 40.164 125.892 40.4803 125.892 40.827V44.61C125.892 44.714 125.853 44.805 125.775 44.883C125.697 44.961 125.606 45 125.502 45C125.381 45 125.285 44.961 125.216 44.883C125.147 44.805 125.112 44.714 125.112 44.61V38.786C125.112 38.682 125.147 38.591 125.216 38.513C125.294 38.435 125.389 38.396 125.502 38.396C125.615 38.396 125.706 38.435 125.775 38.513C125.853 38.591 125.892 38.682 125.892 38.786V39.878L125.593 40.346C125.61 40.0687 125.697 39.8043 125.853 39.553C126.018 39.293 126.226 39.0633 126.477 38.864C126.728 38.656 127.006 38.4957 127.309 38.383C127.621 38.2617 127.933 38.201 128.245 38.201ZM138.075 38.357C138.187 38.357 138.278 38.396 138.348 38.474C138.426 38.552 138.465 38.6473 138.465 38.76V44.61C138.465 44.714 138.426 44.805 138.348 44.883C138.27 44.961 138.179 45 138.075 45C137.962 45 137.867 44.961 137.789 44.883C137.719 44.805 137.685 44.714 137.685 44.61V43.063L137.906 42.959C137.906 43.2017 137.836 43.4487 137.698 43.7C137.568 43.9513 137.386 44.1853 137.152 44.402C136.918 44.6187 136.64 44.7963 136.32 44.935C136.008 45.065 135.67 45.13 135.306 45.13C134.716 45.13 134.188 44.9783 133.72 44.675C133.26 44.3717 132.896 43.9557 132.628 43.427C132.368 42.8983 132.238 42.3047 132.238 41.646C132.238 40.97 132.372 40.3763 132.641 39.865C132.909 39.345 133.273 38.9377 133.733 38.643C134.192 38.3483 134.712 38.201 135.293 38.201C135.665 38.201 136.012 38.266 136.333 38.396C136.662 38.526 136.948 38.7037 137.191 38.929C137.433 39.1543 137.62 39.4143 137.75 39.709C137.888 39.995 137.958 40.294 137.958 40.606L137.685 40.411V38.76C137.685 38.6473 137.719 38.552 137.789 38.474C137.867 38.396 137.962 38.357 138.075 38.357ZM135.371 44.402C135.83 44.402 136.237 44.285 136.593 44.051C136.948 43.8083 137.225 43.479 137.425 43.063C137.633 42.6383 137.737 42.166 137.737 41.646C137.737 41.1347 137.633 40.6753 137.425 40.268C137.225 39.8607 136.948 39.5357 136.593 39.293C136.237 39.0503 135.83 38.929 135.371 38.929C134.92 38.929 134.513 39.046 134.149 39.28C133.793 39.514 133.512 39.8347 133.304 40.242C133.104 40.6493 133.005 41.1173 133.005 41.646C133.005 42.166 133.104 42.6383 133.304 43.063C133.512 43.479 133.793 43.8083 134.149 44.051C134.504 44.285 134.911 44.402 135.371 44.402ZM140.082 38.383H143.111C143.215 38.383 143.302 38.422 143.371 38.5C143.441 38.5693 143.475 38.656 143.475 38.76C143.475 38.8553 143.441 38.9377 143.371 39.007C143.302 39.0763 143.215 39.111 143.111 39.111H140.082C139.978 39.111 139.887 39.0763 139.809 39.007C139.74 38.929 139.705 38.8423 139.705 38.747C139.705 38.643 139.74 38.5563 139.809 38.487C139.887 38.4177 139.978 38.383 140.082 38.383ZM141.421 36.55C141.534 36.55 141.625 36.589 141.694 36.667C141.772 36.745 141.811 36.836 141.811 36.94V43.466C141.811 43.7087 141.842 43.8907 141.902 44.012C141.972 44.1333 142.058 44.2157 142.162 44.259C142.266 44.2937 142.37 44.311 142.474 44.311C142.544 44.311 142.604 44.3023 142.656 44.285C142.717 44.259 142.782 44.246 142.851 44.246C142.929 44.246 142.994 44.2763 143.046 44.337C143.107 44.3977 143.137 44.4757 143.137 44.571C143.137 44.6923 143.068 44.7963 142.929 44.883C142.791 44.961 142.626 45 142.435 45C142.357 45 142.24 44.9957 142.084 44.987C141.928 44.9697 141.768 44.922 141.603 44.844C141.439 44.7573 141.3 44.61 141.187 44.402C141.083 44.194 141.031 43.895 141.031 43.505V36.94C141.031 36.836 141.066 36.745 141.135 36.667C141.213 36.589 141.309 36.55 141.421 36.55ZM145.671 44.61C145.671 44.714 145.632 44.805 145.554 44.883C145.476 44.961 145.385 45 145.281 45C145.168 45 145.073 44.961 144.995 44.883C144.925 44.805 144.891 44.714 144.891 44.61V38.63C144.891 38.526 144.925 38.435 144.995 38.357C145.073 38.279 145.168 38.24 145.281 38.24C145.393 38.24 145.484 38.279 145.554 38.357C145.632 38.435 145.671 38.526 145.671 38.63V44.61ZM145.281 37.369C145.099 37.369 144.96 37.33 144.865 37.252C144.778 37.1653 144.735 37.044 144.735 36.888V36.758C144.735 36.602 144.782 36.485 144.878 36.407C144.982 36.3203 145.12 36.277 145.294 36.277C145.458 36.277 145.584 36.3203 145.671 36.407C145.766 36.485 145.814 36.602 145.814 36.758V36.888C145.814 37.044 145.766 37.1653 145.671 37.252C145.584 37.33 145.454 37.369 145.281 37.369ZM153.885 41.672C153.885 42.3307 153.742 42.9243 153.456 43.453C153.17 43.973 152.78 44.3847 152.286 44.688C151.792 44.9827 151.229 45.13 150.596 45.13C149.981 45.13 149.422 44.9827 148.919 44.688C148.425 44.3847 148.031 43.973 147.736 43.453C147.45 42.9243 147.307 42.3307 147.307 41.672C147.307 41.0047 147.45 40.411 147.736 39.891C148.031 39.371 148.425 38.9593 148.919 38.656C149.422 38.3527 149.981 38.201 150.596 38.201C151.229 38.201 151.792 38.3527 152.286 38.656C152.78 38.9593 153.17 39.371 153.456 39.891C153.742 40.411 153.885 41.0047 153.885 41.672ZM153.105 41.672C153.105 41.1433 152.997 40.6753 152.78 40.268C152.563 39.852 152.264 39.527 151.883 39.293C151.51 39.0503 151.081 38.929 150.596 38.929C150.128 38.929 149.703 39.0503 149.322 39.293C148.941 39.527 148.637 39.852 148.412 40.268C148.195 40.6753 148.087 41.1433 148.087 41.672C148.087 42.2007 148.195 42.6687 148.412 43.076C148.637 43.4833 148.941 43.8083 149.322 44.051C149.703 44.285 150.128 44.402 150.596 44.402C151.081 44.402 151.51 44.285 151.883 44.051C152.264 43.8083 152.563 43.4833 152.78 43.076C152.997 42.6687 153.105 42.2007 153.105 41.672ZM158.676 38.201C159.248 38.201 159.703 38.318 160.041 38.552C160.387 38.7773 160.634 39.0893 160.782 39.488C160.938 39.878 161.016 40.3113 161.016 40.788V44.61C161.016 44.714 160.977 44.805 160.899 44.883C160.821 44.961 160.73 45 160.626 45C160.504 45 160.409 44.961 160.34 44.883C160.27 44.805 160.236 44.714 160.236 44.61V40.827C160.236 40.4803 160.179 40.164 160.067 39.878C159.954 39.592 159.768 39.3623 159.508 39.189C159.256 39.0157 158.923 38.929 158.507 38.929C158.134 38.929 157.779 39.0157 157.441 39.189C157.111 39.3623 156.843 39.592 156.635 39.878C156.427 40.164 156.323 40.4803 156.323 40.827V44.61C156.323 44.714 156.284 44.805 156.206 44.883C156.128 44.961 156.037 45 155.933 45C155.811 45 155.716 44.961 155.647 44.883C155.577 44.805 155.543 44.714 155.543 44.61V38.786C155.543 38.682 155.577 38.591 155.647 38.513C155.725 38.435 155.82 38.396 155.933 38.396C156.045 38.396 156.136 38.435 156.206 38.513C156.284 38.591 156.323 38.682 156.323 38.786V39.878L156.024 40.346C156.041 40.0687 156.128 39.8043 156.284 39.553C156.448 39.293 156.656 39.0633 156.908 38.864C157.159 38.656 157.436 38.4957 157.74 38.383C158.052 38.2617 158.364 38.201 158.676 38.201Z" fill="#BEBEBE"/>
<path d="M338.288 12.844C338.447 12.928 338.535 13.054 338.554 13.222C338.582 13.39 338.54 13.544 338.428 13.684C338.344 13.8053 338.237 13.8707 338.106 13.88C337.975 13.8893 337.845 13.8613 337.714 13.796C337.406 13.6093 337.075 13.4647 336.72 13.362C336.365 13.25 335.992 13.194 335.6 13.194C335.049 13.194 334.545 13.292 334.088 13.488C333.631 13.6747 333.234 13.9407 332.898 14.286C332.562 14.6313 332.301 15.042 332.114 15.518C331.927 15.994 331.834 16.5213 331.834 17.1C331.834 17.716 331.932 18.2667 332.128 18.752C332.324 19.2373 332.59 19.6527 332.926 19.998C333.271 20.334 333.668 20.5907 334.116 20.768C334.573 20.9453 335.068 21.034 335.6 21.034C335.983 21.034 336.351 20.9827 336.706 20.88C337.061 20.7773 337.397 20.628 337.714 20.432C337.845 20.3667 337.975 20.3433 338.106 20.362C338.237 20.3807 338.349 20.446 338.442 20.558C338.554 20.7073 338.596 20.866 338.568 21.034C338.54 21.1927 338.451 21.3093 338.302 21.384C338.069 21.524 337.803 21.6547 337.504 21.776C337.205 21.888 336.893 21.9767 336.566 22.042C336.249 22.1073 335.927 22.14 335.6 22.14C334.928 22.14 334.293 22.0233 333.696 21.79C333.099 21.5567 332.571 21.2207 332.114 20.782C331.657 20.3433 331.293 19.816 331.022 19.2C330.761 18.5747 330.63 17.8747 330.63 17.1C330.63 16.372 330.756 15.7047 331.008 15.098C331.26 14.4913 331.61 13.964 332.058 13.516C332.515 13.068 333.043 12.718 333.64 12.466C334.247 12.214 334.9 12.088 335.6 12.088C336.085 12.088 336.557 12.1533 337.014 12.284C337.481 12.4147 337.905 12.6013 338.288 12.844ZM343.559 14.65C344.175 14.65 344.661 14.7853 345.015 15.056C345.379 15.3173 345.636 15.672 345.785 16.12C345.944 16.5587 346.023 17.0487 346.023 17.59V21.426C346.023 21.5847 345.967 21.72 345.855 21.832C345.753 21.944 345.622 22 345.463 22C345.305 22 345.169 21.944 345.057 21.832C344.955 21.72 344.903 21.5847 344.903 21.426V17.59C344.903 17.2353 344.852 16.918 344.749 16.638C344.647 16.3487 344.474 16.12 344.231 15.952C343.998 15.7747 343.676 15.686 343.265 15.686C342.883 15.686 342.533 15.7747 342.215 15.952C341.898 16.12 341.646 16.3487 341.459 16.638C341.273 16.918 341.179 17.2353 341.179 17.59V21.426C341.179 21.5847 341.123 21.72 341.011 21.832C340.909 21.944 340.778 22 340.619 22C340.461 22 340.325 21.944 340.213 21.832C340.111 21.72 340.059 21.5847 340.059 21.426V12.2C340.059 12.0413 340.111 11.9107 340.213 11.808C340.325 11.696 340.461 11.64 340.619 11.64C340.787 11.64 340.923 11.696 341.025 11.808C341.128 11.9107 341.179 12.0413 341.179 12.2V16.386L340.899 16.694C340.946 16.4513 341.049 16.2087 341.207 15.966C341.366 15.714 341.567 15.49 341.809 15.294C342.052 15.098 342.323 14.944 342.621 14.832C342.92 14.7107 343.233 14.65 343.559 14.65ZM351.445 22.14C350.698 22.14 350.045 21.9813 349.485 21.664C348.925 21.3467 348.486 20.9127 348.169 20.362C347.861 19.802 347.707 19.158 347.707 18.43C347.707 17.618 347.865 16.9273 348.183 16.358C348.509 15.7793 348.929 15.3407 349.443 15.042C349.965 14.734 350.516 14.58 351.095 14.58C351.524 14.58 351.939 14.6593 352.341 14.818C352.742 14.9767 353.097 15.21 353.405 15.518C353.713 15.8167 353.96 16.1807 354.147 16.61C354.333 17.03 354.431 17.5013 354.441 18.024C354.441 18.1733 354.385 18.2993 354.273 18.402C354.161 18.5047 354.03 18.556 353.881 18.556H348.351L348.099 17.59H353.489L353.265 17.786V17.478C353.227 17.0953 353.097 16.7687 352.873 16.498C352.658 16.218 352.392 16.0033 352.075 15.854C351.767 15.7047 351.44 15.63 351.095 15.63C350.815 15.63 350.535 15.6813 350.255 15.784C349.984 15.8773 349.737 16.036 349.513 16.26C349.298 16.4747 349.121 16.7547 348.981 17.1C348.85 17.4453 348.785 17.8607 348.785 18.346C348.785 18.8873 348.892 19.3633 349.107 19.774C349.331 20.1847 349.639 20.5113 350.031 20.754C350.423 20.9873 350.88 21.104 351.403 21.104C351.729 21.104 352.014 21.062 352.257 20.978C352.499 20.894 352.709 20.7913 352.887 20.67C353.064 20.5393 353.213 20.4087 353.335 20.278C353.456 20.194 353.573 20.152 353.685 20.152C353.825 20.152 353.937 20.1987 354.021 20.292C354.114 20.3853 354.161 20.4973 354.161 20.628C354.161 20.7867 354.086 20.9267 353.937 21.048C353.675 21.3373 353.321 21.594 352.873 21.818C352.425 22.0327 351.949 22.14 351.445 22.14ZM359.344 14.58C359.82 14.58 360.249 14.6313 360.632 14.734C361.015 14.8367 361.318 14.9767 361.542 15.154C361.766 15.3313 361.878 15.532 361.878 15.756C361.878 15.8773 361.836 15.994 361.752 16.106C361.668 16.218 361.556 16.274 361.416 16.274C361.285 16.274 361.178 16.2507 361.094 16.204C361.019 16.1573 360.945 16.0967 360.87 16.022C360.805 15.9473 360.711 15.882 360.59 15.826C360.478 15.7607 360.315 15.7093 360.1 15.672C359.885 15.6347 359.671 15.616 359.456 15.616C358.943 15.616 358.49 15.7373 358.098 15.98C357.715 16.2227 357.412 16.5493 357.188 16.96C356.964 17.3707 356.852 17.8373 356.852 18.36C356.852 18.8827 356.959 19.3493 357.174 19.76C357.389 20.1707 357.687 20.4973 358.07 20.74C358.453 20.9827 358.896 21.104 359.4 21.104C359.727 21.104 359.988 21.076 360.184 21.02C360.38 20.964 360.543 20.8987 360.674 20.824C360.842 20.7307 360.968 20.6373 361.052 20.544C361.145 20.4507 361.267 20.404 361.416 20.404C361.575 20.404 361.696 20.4553 361.78 20.558C361.873 20.6607 361.92 20.7867 361.92 20.936C361.92 21.104 361.803 21.2813 361.57 21.468C361.337 21.6547 361.019 21.8133 360.618 21.944C360.226 22.0747 359.778 22.14 359.274 22.14C358.565 22.14 357.944 21.9767 357.412 21.65C356.88 21.314 356.465 20.8613 356.166 20.292C355.877 19.7133 355.732 19.0693 355.732 18.36C355.732 17.6507 355.881 17.0113 356.18 16.442C356.488 15.8727 356.913 15.42 357.454 15.084C357.995 14.748 358.625 14.58 359.344 14.58ZM364.056 22C363.888 22 363.752 21.944 363.65 21.832C363.547 21.72 363.496 21.5847 363.496 21.426V12.2C363.496 12.0413 363.547 11.9107 363.65 11.808C363.752 11.696 363.888 11.64 364.056 11.64C364.214 11.64 364.345 11.696 364.448 11.808C364.56 11.9107 364.616 12.0413 364.616 12.2V21.426C364.616 21.5847 364.56 21.72 364.448 21.832C364.345 21.944 364.214 22 364.056 22ZM368.704 14.72C368.853 14.72 368.979 14.7807 369.082 14.902C369.194 15.014 369.25 15.1307 369.25 15.252C369.25 15.4107 369.175 15.5507 369.026 15.672L364.49 19.634L364.448 18.332L368.312 14.888C368.424 14.776 368.554 14.72 368.704 14.72ZM368.858 21.986C368.699 21.986 368.559 21.9253 368.438 21.804L365.456 18.626L366.296 17.856L369.25 21.02C369.362 21.1413 369.418 21.2813 369.418 21.44C369.418 21.608 369.352 21.7433 369.222 21.846C369.091 21.9393 368.97 21.986 368.858 21.986ZM375.973 21.426C375.973 21.5847 375.917 21.72 375.805 21.832C375.703 21.944 375.572 22 375.413 22C375.245 22 375.11 21.944 375.007 21.832C374.905 21.72 374.853 21.5847 374.853 21.426V15.21C374.853 15.0513 374.905 14.9207 375.007 14.818C375.119 14.706 375.255 14.65 375.413 14.65C375.572 14.65 375.703 14.706 375.805 14.818C375.917 14.9207 375.973 15.0513 375.973 15.21V21.426ZM375.413 13.712C375.18 13.712 375.007 13.6653 374.895 13.572C374.783 13.4787 374.727 13.334 374.727 13.138V12.942C374.727 12.746 374.788 12.6013 374.909 12.508C375.031 12.4147 375.203 12.368 375.427 12.368C375.651 12.368 375.819 12.4147 375.931 12.508C376.043 12.6013 376.099 12.746 376.099 12.942V13.138C376.099 13.334 376.039 13.4787 375.917 13.572C375.805 13.6653 375.637 13.712 375.413 13.712ZM381.583 14.58C382.218 14.58 382.717 14.7107 383.081 14.972C383.445 15.2333 383.702 15.5833 383.851 16.022C384.01 16.4607 384.089 16.9507 384.089 17.492V21.426C384.089 21.5847 384.033 21.72 383.921 21.832C383.819 21.944 383.688 22 383.529 22C383.371 22 383.235 21.944 383.123 21.832C383.021 21.72 382.969 21.5847 382.969 21.426V17.52C382.969 17.1653 382.913 16.848 382.801 16.568C382.699 16.2787 382.521 16.05 382.269 15.882C382.027 15.7047 381.691 15.616 381.261 15.616C380.869 15.616 380.51 15.7047 380.183 15.882C379.857 16.05 379.595 16.2787 379.399 16.568C379.203 16.848 379.105 17.1653 379.105 17.52V21.426C379.105 21.5847 379.049 21.72 378.937 21.832C378.835 21.944 378.704 22 378.545 22C378.387 22 378.251 21.944 378.139 21.832C378.037 21.72 377.985 21.5847 377.985 21.426V15.322C377.985 15.1633 378.037 15.0327 378.139 14.93C378.251 14.818 378.387 14.762 378.545 14.762C378.713 14.762 378.849 14.818 378.951 14.93C379.054 15.0327 379.105 15.1633 379.105 15.322V16.316L378.825 16.624C378.872 16.3813 378.979 16.1387 379.147 15.896C379.315 15.644 379.525 15.42 379.777 15.224C380.029 15.028 380.309 14.874 380.617 14.762C380.925 14.6407 381.247 14.58 381.583 14.58Z" fill="#161117"/>
<path d="M334.264 36.901L331.105 44.753C331.07 44.8397 331.023 44.9047 330.962 44.948C330.901 44.9913 330.832 45.013 330.754 45.013C330.633 45.013 330.542 44.9827 330.481 44.922C330.42 44.8527 330.386 44.7703 330.377 44.675C330.368 44.6317 330.373 44.5797 330.39 44.519L333.822 36.121C333.865 36.0257 333.917 35.9607 333.978 35.926C334.047 35.8827 334.125 35.861 334.212 35.861C334.299 35.861 334.372 35.887 334.433 35.939C334.502 35.9823 334.554 36.043 334.589 36.121L338.008 44.48C338.025 44.532 338.034 44.584 338.034 44.636C338.034 44.7573 337.995 44.8527 337.917 44.922C337.839 44.9827 337.748 45.013 337.644 45.013C337.557 45.013 337.479 44.9913 337.41 44.948C337.349 44.896 337.302 44.831 337.267 44.753L334.03 36.849L334.264 36.901ZM331.859 42.374L332.184 41.607H336.214L336.37 42.374H331.859ZM344.891 35.38C345.004 35.38 345.095 35.419 345.164 35.497C345.242 35.5663 345.281 35.6573 345.281 35.77V44.61C345.281 44.714 345.242 44.805 345.164 44.883C345.086 44.961 344.995 45 344.891 45C344.778 45 344.683 44.961 344.605 44.883C344.536 44.805 344.501 44.714 344.501 44.61V43.063L344.722 42.881C344.722 43.1237 344.657 43.3793 344.527 43.648C344.397 43.908 344.211 44.1507 343.968 44.376C343.734 44.6013 343.457 44.7833 343.136 44.922C342.824 45.0607 342.486 45.13 342.122 45.13C341.541 45.13 341.017 44.9783 340.549 44.675C340.09 44.3717 339.726 43.96 339.457 43.44C339.188 42.92 339.054 42.3263 339.054 41.659C339.054 41.0003 339.188 40.411 339.457 39.891C339.726 39.3623 340.09 38.9507 340.549 38.656C341.008 38.3527 341.528 38.201 342.109 38.201C342.464 38.201 342.802 38.266 343.123 38.396C343.444 38.526 343.725 38.7037 343.968 38.929C344.219 39.1543 344.414 39.4143 344.553 39.709C344.7 39.995 344.774 40.294 344.774 40.606L344.501 40.411V35.77C344.501 35.666 344.536 35.575 344.605 35.497C344.683 35.419 344.778 35.38 344.891 35.38ZM342.187 44.402C342.655 44.402 343.062 44.285 343.409 44.051C343.764 43.8083 344.042 43.4833 344.241 43.076C344.449 42.66 344.553 42.1877 344.553 41.659C344.553 41.139 344.449 40.6753 344.241 40.268C344.042 39.852 343.764 39.527 343.409 39.293C343.054 39.0503 342.646 38.929 342.187 38.929C341.736 38.929 341.329 39.0503 340.965 39.293C340.61 39.527 340.328 39.852 340.12 40.268C339.921 40.6753 339.821 41.139 339.821 41.659C339.821 42.179 339.921 42.647 340.12 43.063C340.328 43.479 340.61 43.8083 340.965 44.051C341.329 44.285 341.736 44.402 342.187 44.402ZM352.775 35.38C352.887 35.38 352.978 35.419 353.048 35.497C353.126 35.5663 353.165 35.6573 353.165 35.77V44.61C353.165 44.714 353.126 44.805 353.048 44.883C352.97 44.961 352.879 45 352.775 45C352.662 45 352.567 44.961 352.489 44.883C352.419 44.805 352.385 44.714 352.385 44.61V43.063L352.606 42.881C352.606 43.1237 352.541 43.3793 352.411 43.648C352.281 43.908 352.094 44.1507 351.852 44.376C351.618 44.6013 351.34 44.7833 351.02 44.922C350.708 45.0607 350.37 45.13 350.006 45.13C349.425 45.13 348.901 44.9783 348.433 44.675C347.973 44.3717 347.609 43.96 347.341 43.44C347.072 42.92 346.938 42.3263 346.938 41.659C346.938 41.0003 347.072 40.411 347.341 39.891C347.609 39.3623 347.973 38.9507 348.433 38.656C348.892 38.3527 349.412 38.201 349.993 38.201C350.348 38.201 350.686 38.266 351.007 38.396C351.327 38.526 351.609 38.7037 351.852 38.929C352.103 39.1543 352.298 39.4143 352.437 39.709C352.584 39.995 352.658 40.294 352.658 40.606L352.385 40.411V35.77C352.385 35.666 352.419 35.575 352.489 35.497C352.567 35.419 352.662 35.38 352.775 35.38ZM350.071 44.402C350.539 44.402 350.946 44.285 351.293 44.051C351.648 43.8083 351.925 43.4833 352.125 43.076C352.333 42.66 352.437 42.1877 352.437 41.659C352.437 41.139 352.333 40.6753 352.125 40.268C351.925 39.852 351.648 39.527 351.293 39.293C350.937 39.0503 350.53 38.929 350.071 38.929C349.62 38.929 349.213 39.0503 348.849 39.293C348.493 39.527 348.212 39.852 348.004 40.268C347.804 40.6753 347.705 41.139 347.705 41.659C347.705 42.179 347.804 42.647 348.004 43.063C348.212 43.479 348.493 43.8083 348.849 44.051C349.213 44.285 349.62 44.402 350.071 44.402ZM364.213 35.38C364.326 35.38 364.417 35.419 364.486 35.497C364.564 35.5663 364.603 35.6573 364.603 35.77V44.61C364.603 44.714 364.564 44.805 364.486 44.883C364.408 44.961 364.317 45 364.213 45C364.101 45 364.005 44.961 363.927 44.883C363.858 44.805 363.823 44.714 363.823 44.61V43.063L364.044 42.881C364.044 43.1237 363.979 43.3793 363.849 43.648C363.719 43.908 363.533 44.1507 363.29 44.376C363.056 44.6013 362.779 44.7833 362.458 44.922C362.146 45.0607 361.808 45.13 361.444 45.13C360.864 45.13 360.339 44.9783 359.871 44.675C359.412 44.3717 359.048 43.96 358.779 43.44C358.511 42.92 358.376 42.3263 358.376 41.659C358.376 41.0003 358.511 40.411 358.779 39.891C359.048 39.3623 359.412 38.9507 359.871 38.656C360.331 38.3527 360.851 38.201 361.431 38.201C361.787 38.201 362.125 38.266 362.445 38.396C362.766 38.526 363.048 38.7037 363.29 38.929C363.542 39.1543 363.737 39.4143 363.875 39.709C364.023 39.995 364.096 40.294 364.096 40.606L363.823 40.411V35.77C363.823 35.666 363.858 35.575 363.927 35.497C364.005 35.419 364.101 35.38 364.213 35.38ZM361.509 44.402C361.977 44.402 362.385 44.285 362.731 44.051C363.087 43.8083 363.364 43.4833 363.563 43.076C363.771 42.66 363.875 42.1877 363.875 41.659C363.875 41.139 363.771 40.6753 363.563 40.268C363.364 39.852 363.087 39.527 362.731 39.293C362.376 39.0503 361.969 38.929 361.509 38.929C361.059 38.929 360.651 39.0503 360.287 39.293C359.932 39.527 359.65 39.852 359.442 40.268C359.243 40.6753 359.143 41.139 359.143 41.659C359.143 42.179 359.243 42.647 359.442 43.063C359.65 43.479 359.932 43.8083 360.287 44.051C360.651 44.285 361.059 44.402 361.509 44.402ZM372.097 38.357C372.21 38.357 372.301 38.396 372.37 38.474C372.448 38.552 372.487 38.6473 372.487 38.76V44.61C372.487 44.714 372.448 44.805 372.37 44.883C372.292 44.961 372.201 45 372.097 45C371.984 45 371.889 44.961 371.811 44.883C371.742 44.805 371.707 44.714 371.707 44.61V43.063L371.928 42.959C371.928 43.2017 371.859 43.4487 371.72 43.7C371.59 43.9513 371.408 44.1853 371.174 44.402C370.94 44.6187 370.663 44.7963 370.342 44.935C370.03 45.065 369.692 45.13 369.328 45.13C368.739 45.13 368.21 44.9783 367.742 44.675C367.283 44.3717 366.919 43.9557 366.65 43.427C366.39 42.8983 366.26 42.3047 366.26 41.646C366.26 40.97 366.394 40.3763 366.663 39.865C366.932 39.345 367.296 38.9377 367.755 38.643C368.214 38.3483 368.734 38.201 369.315 38.201C369.688 38.201 370.034 38.266 370.355 38.396C370.684 38.526 370.97 38.7037 371.213 38.929C371.456 39.1543 371.642 39.4143 371.772 39.709C371.911 39.995 371.98 40.294 371.98 40.606L371.707 40.411V38.76C371.707 38.6473 371.742 38.552 371.811 38.474C371.889 38.396 371.984 38.357 372.097 38.357ZM369.393 44.402C369.852 44.402 370.26 44.285 370.615 44.051C370.97 43.8083 371.248 43.479 371.447 43.063C371.655 42.6383 371.759 42.166 371.759 41.646C371.759 41.1347 371.655 40.6753 371.447 40.268C371.248 39.8607 370.97 39.5357 370.615 39.293C370.26 39.0503 369.852 38.929 369.393 38.929C368.942 38.929 368.535 39.046 368.171 39.28C367.816 39.514 367.534 39.8347 367.326 40.242C367.127 40.6493 367.027 41.1173 367.027 41.646C367.027 42.166 367.127 42.6383 367.326 43.063C367.534 43.479 367.816 43.8083 368.171 44.051C368.526 44.285 368.934 44.402 369.393 44.402ZM374.105 38.383H377.134C377.238 38.383 377.325 38.422 377.394 38.5C377.463 38.5693 377.498 38.656 377.498 38.76C377.498 38.8553 377.463 38.9377 377.394 39.007C377.325 39.0763 377.238 39.111 377.134 39.111H374.105C374.001 39.111 373.91 39.0763 373.832 39.007C373.763 38.929 373.728 38.8423 373.728 38.747C373.728 38.643 373.763 38.5563 373.832 38.487C373.91 38.4177 374.001 38.383 374.105 38.383ZM375.444 36.55C375.557 36.55 375.648 36.589 375.717 36.667C375.795 36.745 375.834 36.836 375.834 36.94V43.466C375.834 43.7087 375.864 43.8907 375.925 44.012C375.994 44.1333 376.081 44.2157 376.185 44.259C376.289 44.2937 376.393 44.311 376.497 44.311C376.566 44.311 376.627 44.3023 376.679 44.285C376.74 44.259 376.805 44.246 376.874 44.246C376.952 44.246 377.017 44.2763 377.069 44.337C377.13 44.3977 377.16 44.4757 377.16 44.571C377.16 44.6923 377.091 44.7963 376.952 44.883C376.813 44.961 376.649 45 376.458 45C376.38 45 376.263 44.9957 376.107 44.987C375.951 44.9697 375.791 44.922 375.626 44.844C375.461 44.7573 375.323 44.61 375.21 44.402C375.106 44.194 375.054 43.895 375.054 43.505V36.94C375.054 36.836 375.089 36.745 375.158 36.667C375.236 36.589 375.331 36.55 375.444 36.55ZM381.879 45.13C381.211 45.13 380.622 44.987 380.111 44.701C379.599 44.415 379.201 44.0163 378.915 43.505C378.629 42.9937 378.486 42.3957 378.486 41.711C378.486 40.9743 378.629 40.346 378.915 39.826C379.209 39.306 379.586 38.9073 380.046 38.63C380.514 38.344 381.008 38.201 381.528 38.201C381.909 38.201 382.277 38.2703 382.633 38.409C382.997 38.539 383.317 38.7383 383.595 39.007C383.881 39.267 384.106 39.5877 384.271 39.969C384.444 40.3503 384.539 40.7923 384.557 41.295C384.548 41.399 384.505 41.49 384.427 41.568C384.349 41.6373 384.258 41.672 384.154 41.672H378.941L378.785 40.97H383.907L383.738 41.126V40.866C383.703 40.4587 383.573 40.112 383.348 39.826C383.122 39.54 382.849 39.3233 382.529 39.176C382.208 39.0287 381.874 38.955 381.528 38.955C381.268 38.955 380.999 39.007 380.722 39.111C380.453 39.215 380.206 39.3797 379.981 39.605C379.764 39.8217 379.586 40.1033 379.448 40.45C379.309 40.788 379.24 41.191 379.24 41.659C379.24 42.1703 379.344 42.634 379.552 43.05C379.76 43.466 380.059 43.7953 380.449 44.038C380.847 44.2807 381.32 44.402 381.866 44.402C382.169 44.402 382.442 44.3587 382.685 44.272C382.927 44.1853 383.14 44.0727 383.322 43.934C383.504 43.7867 383.655 43.635 383.777 43.479C383.872 43.401 383.967 43.362 384.063 43.362C384.149 43.362 384.223 43.3967 384.284 43.466C384.353 43.5353 384.388 43.6133 384.388 43.7C384.388 43.804 384.344 43.895 384.258 43.973C383.998 44.285 383.66 44.558 383.244 44.792C382.828 45.0173 382.373 45.13 381.879 45.13Z" fill="#BEBEBE"/>
<path d="M464.288 12.844C464.447 12.928 464.535 13.054 464.554 13.222C464.582 13.39 464.54 13.544 464.428 13.684C464.344 13.8053 464.237 13.8707 464.106 13.88C463.975 13.8893 463.845 13.8613 463.714 13.796C463.406 13.6093 463.075 13.4647 462.72 13.362C462.365 13.25 461.992 13.194 461.6 13.194C461.049 13.194 460.545 13.292 460.088 13.488C459.631 13.6747 459.234 13.9407 458.898 14.286C458.562 14.6313 458.301 15.042 458.114 15.518C457.927 15.994 457.834 16.5213 457.834 17.1C457.834 17.716 457.932 18.2667 458.128 18.752C458.324 19.2373 458.59 19.6527 458.926 19.998C459.271 20.334 459.668 20.5907 460.116 20.768C460.573 20.9453 461.068 21.034 461.6 21.034C461.983 21.034 462.351 20.9827 462.706 20.88C463.061 20.7773 463.397 20.628 463.714 20.432C463.845 20.3667 463.975 20.3433 464.106 20.362C464.237 20.3807 464.349 20.446 464.442 20.558C464.554 20.7073 464.596 20.866 464.568 21.034C464.54 21.1927 464.451 21.3093 464.302 21.384C464.069 21.524 463.803 21.6547 463.504 21.776C463.205 21.888 462.893 21.9767 462.566 22.042C462.249 22.1073 461.927 22.14 461.6 22.14C460.928 22.14 460.293 22.0233 459.696 21.79C459.099 21.5567 458.571 21.2207 458.114 20.782C457.657 20.3433 457.293 19.816 457.022 19.2C456.761 18.5747 456.63 17.8747 456.63 17.1C456.63 16.372 456.756 15.7047 457.008 15.098C457.26 14.4913 457.61 13.964 458.058 13.516C458.515 13.068 459.043 12.718 459.64 12.466C460.247 12.214 460.9 12.088 461.6 12.088C462.085 12.088 462.557 12.1533 463.014 12.284C463.481 12.4147 463.905 12.6013 464.288 12.844ZM469.559 14.65C470.175 14.65 470.661 14.7853 471.015 15.056C471.379 15.3173 471.636 15.672 471.785 16.12C471.944 16.5587 472.023 17.0487 472.023 17.59V21.426C472.023 21.5847 471.967 21.72 471.855 21.832C471.753 21.944 471.622 22 471.463 22C471.305 22 471.169 21.944 471.057 21.832C470.955 21.72 470.903 21.5847 470.903 21.426V17.59C470.903 17.2353 470.852 16.918 470.749 16.638C470.647 16.3487 470.474 16.12 470.231 15.952C469.998 15.7747 469.676 15.686 469.265 15.686C468.883 15.686 468.533 15.7747 468.215 15.952C467.898 16.12 467.646 16.3487 467.459 16.638C467.273 16.918 467.179 17.2353 467.179 17.59V21.426C467.179 21.5847 467.123 21.72 467.011 21.832C466.909 21.944 466.778 22 466.619 22C466.461 22 466.325 21.944 466.213 21.832C466.111 21.72 466.059 21.5847 466.059 21.426V12.2C466.059 12.0413 466.111 11.9107 466.213 11.808C466.325 11.696 466.461 11.64 466.619 11.64C466.787 11.64 466.923 11.696 467.025 11.808C467.128 11.9107 467.179 12.0413 467.179 12.2V16.386L466.899 16.694C466.946 16.4513 467.049 16.2087 467.207 15.966C467.366 15.714 467.567 15.49 467.809 15.294C468.052 15.098 468.323 14.944 468.621 14.832C468.92 14.7107 469.233 14.65 469.559 14.65ZM477.445 22.14C476.698 22.14 476.045 21.9813 475.485 21.664C474.925 21.3467 474.486 20.9127 474.169 20.362C473.861 19.802 473.707 19.158 473.707 18.43C473.707 17.618 473.865 16.9273 474.183 16.358C474.509 15.7793 474.929 15.3407 475.443 15.042C475.965 14.734 476.516 14.58 477.095 14.58C477.524 14.58 477.939 14.6593 478.341 14.818C478.742 14.9767 479.097 15.21 479.405 15.518C479.713 15.8167 479.96 16.1807 480.147 16.61C480.333 17.03 480.431 17.5013 480.441 18.024C480.441 18.1733 480.385 18.2993 480.273 18.402C480.161 18.5047 480.03 18.556 479.881 18.556H474.351L474.099 17.59H479.489L479.265 17.786V17.478C479.227 17.0953 479.097 16.7687 478.873 16.498C478.658 16.218 478.392 16.0033 478.075 15.854C477.767 15.7047 477.44 15.63 477.095 15.63C476.815 15.63 476.535 15.6813 476.255 15.784C475.984 15.8773 475.737 16.036 475.513 16.26C475.298 16.4747 475.121 16.7547 474.981 17.1C474.85 17.4453 474.785 17.8607 474.785 18.346C474.785 18.8873 474.892 19.3633 475.107 19.774C475.331 20.1847 475.639 20.5113 476.031 20.754C476.423 20.9873 476.88 21.104 477.403 21.104C477.729 21.104 478.014 21.062 478.257 20.978C478.499 20.894 478.709 20.7913 478.887 20.67C479.064 20.5393 479.213 20.4087 479.335 20.278C479.456 20.194 479.573 20.152 479.685 20.152C479.825 20.152 479.937 20.1987 480.021 20.292C480.114 20.3853 480.161 20.4973 480.161 20.628C480.161 20.7867 480.086 20.9267 479.937 21.048C479.675 21.3373 479.321 21.594 478.873 21.818C478.425 22.0327 477.949 22.14 477.445 22.14ZM485.344 14.58C485.82 14.58 486.249 14.6313 486.632 14.734C487.015 14.8367 487.318 14.9767 487.542 15.154C487.766 15.3313 487.878 15.532 487.878 15.756C487.878 15.8773 487.836 15.994 487.752 16.106C487.668 16.218 487.556 16.274 487.416 16.274C487.285 16.274 487.178 16.2507 487.094 16.204C487.019 16.1573 486.945 16.0967 486.87 16.022C486.805 15.9473 486.711 15.882 486.59 15.826C486.478 15.7607 486.315 15.7093 486.1 15.672C485.885 15.6347 485.671 15.616 485.456 15.616C484.943 15.616 484.49 15.7373 484.098 15.98C483.715 16.2227 483.412 16.5493 483.188 16.96C482.964 17.3707 482.852 17.8373 482.852 18.36C482.852 18.8827 482.959 19.3493 483.174 19.76C483.389 20.1707 483.687 20.4973 484.07 20.74C484.453 20.9827 484.896 21.104 485.4 21.104C485.727 21.104 485.988 21.076 486.184 21.02C486.38 20.964 486.543 20.8987 486.674 20.824C486.842 20.7307 486.968 20.6373 487.052 20.544C487.145 20.4507 487.267 20.404 487.416 20.404C487.575 20.404 487.696 20.4553 487.78 20.558C487.873 20.6607 487.92 20.7867 487.92 20.936C487.92 21.104 487.803 21.2813 487.57 21.468C487.337 21.6547 487.019 21.8133 486.618 21.944C486.226 22.0747 485.778 22.14 485.274 22.14C484.565 22.14 483.944 21.9767 483.412 21.65C482.88 21.314 482.465 20.8613 482.166 20.292C481.877 19.7133 481.732 19.0693 481.732 18.36C481.732 17.6507 481.881 17.0113 482.18 16.442C482.488 15.8727 482.913 15.42 483.454 15.084C483.995 14.748 484.625 14.58 485.344 14.58ZM490.056 22C489.888 22 489.752 21.944 489.65 21.832C489.547 21.72 489.496 21.5847 489.496 21.426V12.2C489.496 12.0413 489.547 11.9107 489.65 11.808C489.752 11.696 489.888 11.64 490.056 11.64C490.214 11.64 490.345 11.696 490.448 11.808C490.56 11.9107 490.616 12.0413 490.616 12.2V21.426C490.616 21.5847 490.56 21.72 490.448 21.832C490.345 21.944 490.214 22 490.056 22ZM494.704 14.72C494.853 14.72 494.979 14.7807 495.082 14.902C495.194 15.014 495.25 15.1307 495.25 15.252C495.25 15.4107 495.175 15.5507 495.026 15.672L490.49 19.634L490.448 18.332L494.312 14.888C494.424 14.776 494.554 14.72 494.704 14.72ZM494.858 21.986C494.699 21.986 494.559 21.9253 494.438 21.804L491.456 18.626L492.296 17.856L495.25 21.02C495.362 21.1413 495.418 21.2813 495.418 21.44C495.418 21.608 495.352 21.7433 495.222 21.846C495.091 21.9393 494.97 21.986 494.858 21.986ZM507.769 18.36C507.769 19.088 507.606 19.7367 507.279 20.306C506.962 20.8753 506.528 21.3233 505.977 21.65C505.436 21.9767 504.825 22.14 504.143 22.14C503.462 22.14 502.846 21.9767 502.295 21.65C501.745 21.3233 501.306 20.8753 500.979 20.306C500.662 19.7367 500.503 19.088 500.503 18.36C500.503 17.632 500.662 16.9833 500.979 16.414C501.306 15.8447 501.745 15.3967 502.295 15.07C502.846 14.7433 503.462 14.58 504.143 14.58C504.825 14.58 505.436 14.7433 505.977 15.07C506.528 15.3967 506.962 15.8447 507.279 16.414C507.606 16.9833 507.769 17.632 507.769 18.36ZM506.649 18.36C506.649 17.8187 506.537 17.3427 506.313 16.932C506.099 16.5213 505.8 16.1993 505.417 15.966C505.044 15.7327 504.619 15.616 504.143 15.616C503.667 15.616 503.238 15.7327 502.855 15.966C502.482 16.1993 502.183 16.5213 501.959 16.932C501.735 17.3427 501.623 17.8187 501.623 18.36C501.623 18.892 501.735 19.3633 501.959 19.774C502.183 20.1847 502.482 20.5113 502.855 20.754C503.238 20.9873 503.667 21.104 504.143 21.104C504.619 21.104 505.044 20.9873 505.417 20.754C505.8 20.5113 506.099 20.1847 506.313 19.774C506.537 19.3633 506.649 18.892 506.649 18.36ZM514.872 14.762C515.04 14.762 515.175 14.818 515.278 14.93C515.381 15.0327 515.432 15.1633 515.432 15.322V19.144C515.432 20.0867 515.166 20.8193 514.634 21.342C514.111 21.8553 513.379 22.112 512.436 22.112C511.503 22.112 510.77 21.8553 510.238 21.342C509.715 20.8193 509.454 20.0867 509.454 19.144V15.322C509.454 15.1633 509.505 15.0327 509.608 14.93C509.72 14.818 509.855 14.762 510.014 14.762C510.182 14.762 510.317 14.818 510.42 14.93C510.523 15.0327 510.574 15.1633 510.574 15.322V19.144C510.574 19.7787 510.737 20.2593 511.064 20.586C511.391 20.9127 511.848 21.076 512.436 21.076C513.043 21.076 513.505 20.9127 513.822 20.586C514.149 20.2593 514.312 19.7787 514.312 19.144V15.322C514.312 15.1633 514.363 15.0327 514.466 14.93C514.578 14.818 514.713 14.762 514.872 14.762ZM517.227 14.804H520.517C520.666 14.804 520.787 14.8553 520.881 14.958C520.983 15.0607 521.035 15.182 521.035 15.322C521.035 15.4713 520.983 15.5973 520.881 15.7C520.787 15.7933 520.666 15.84 520.517 15.84H517.227C517.087 15.84 516.965 15.7887 516.863 15.686C516.76 15.5833 516.709 15.4573 516.709 15.308C516.709 15.168 516.76 15.0513 516.863 14.958C516.965 14.8553 517.087 14.804 517.227 14.804ZM518.697 12.9C518.855 12.9 518.986 12.956 519.089 13.068C519.191 13.1707 519.243 13.3013 519.243 13.46V20.222C519.243 20.446 519.275 20.614 519.341 20.726C519.406 20.838 519.49 20.9173 519.593 20.964C519.705 21.0013 519.812 21.02 519.915 21.02C520.008 21.02 520.087 21.006 520.153 20.978C520.227 20.9407 520.311 20.922 520.405 20.922C520.498 20.922 520.582 20.9687 520.657 21.062C520.741 21.146 520.783 21.258 520.783 21.398C520.783 21.566 520.685 21.7107 520.489 21.832C520.293 21.944 520.073 22 519.831 22C519.7 22 519.537 21.9907 519.341 21.972C519.154 21.9533 518.967 21.8927 518.781 21.79C518.594 21.6873 518.435 21.5193 518.305 21.286C518.183 21.0433 518.123 20.7073 518.123 20.278V13.46C518.123 13.3013 518.179 13.1707 518.291 13.068C518.403 12.956 518.538 12.9 518.697 12.9Z" fill="#161117"/>
<path d="M460.264 36.901L457.105 44.753C457.07 44.8397 457.023 44.9047 456.962 44.948C456.901 44.9913 456.832 45.013 456.754 45.013C456.633 45.013 456.542 44.9827 456.481 44.922C456.42 44.8527 456.386 44.7703 456.377 44.675C456.368 44.6317 456.373 44.5797 456.39 44.519L459.822 36.121C459.865 36.0257 459.917 35.9607 459.978 35.926C460.047 35.8827 460.125 35.861 460.212 35.861C460.299 35.861 460.372 35.887 460.433 35.939C460.502 35.9823 460.554 36.043 460.589 36.121L464.008 44.48C464.025 44.532 464.034 44.584 464.034 44.636C464.034 44.7573 463.995 44.8527 463.917 44.922C463.839 44.9827 463.748 45.013 463.644 45.013C463.557 45.013 463.479 44.9913 463.41 44.948C463.349 44.896 463.302 44.831 463.267 44.753L460.03 36.849L460.264 36.901ZM457.859 42.374L458.184 41.607H462.214L462.37 42.374H457.859ZM470.891 35.38C471.004 35.38 471.095 35.419 471.164 35.497C471.242 35.5663 471.281 35.6573 471.281 35.77V44.61C471.281 44.714 471.242 44.805 471.164 44.883C471.086 44.961 470.995 45 470.891 45C470.778 45 470.683 44.961 470.605 44.883C470.536 44.805 470.501 44.714 470.501 44.61V43.063L470.722 42.881C470.722 43.1237 470.657 43.3793 470.527 43.648C470.397 43.908 470.211 44.1507 469.968 44.376C469.734 44.6013 469.457 44.7833 469.136 44.922C468.824 45.0607 468.486 45.13 468.122 45.13C467.541 45.13 467.017 44.9783 466.549 44.675C466.09 44.3717 465.726 43.96 465.457 43.44C465.188 42.92 465.054 42.3263 465.054 41.659C465.054 41.0003 465.188 40.411 465.457 39.891C465.726 39.3623 466.09 38.9507 466.549 38.656C467.008 38.3527 467.528 38.201 468.109 38.201C468.464 38.201 468.802 38.266 469.123 38.396C469.444 38.526 469.725 38.7037 469.968 38.929C470.219 39.1543 470.414 39.4143 470.553 39.709C470.7 39.995 470.774 40.294 470.774 40.606L470.501 40.411V35.77C470.501 35.666 470.536 35.575 470.605 35.497C470.683 35.419 470.778 35.38 470.891 35.38ZM468.187 44.402C468.655 44.402 469.062 44.285 469.409 44.051C469.764 43.8083 470.042 43.4833 470.241 43.076C470.449 42.66 470.553 42.1877 470.553 41.659C470.553 41.139 470.449 40.6753 470.241 40.268C470.042 39.852 469.764 39.527 469.409 39.293C469.054 39.0503 468.646 38.929 468.187 38.929C467.736 38.929 467.329 39.0503 466.965 39.293C466.61 39.527 466.328 39.852 466.12 40.268C465.921 40.6753 465.821 41.139 465.821 41.659C465.821 42.179 465.921 42.647 466.12 43.063C466.328 43.479 466.61 43.8083 466.965 44.051C467.329 44.285 467.736 44.402 468.187 44.402ZM478.775 35.38C478.887 35.38 478.978 35.419 479.048 35.497C479.126 35.5663 479.165 35.6573 479.165 35.77V44.61C479.165 44.714 479.126 44.805 479.048 44.883C478.97 44.961 478.879 45 478.775 45C478.662 45 478.567 44.961 478.489 44.883C478.419 44.805 478.385 44.714 478.385 44.61V43.063L478.606 42.881C478.606 43.1237 478.541 43.3793 478.411 43.648C478.281 43.908 478.094 44.1507 477.852 44.376C477.618 44.6013 477.34 44.7833 477.02 44.922C476.708 45.0607 476.37 45.13 476.006 45.13C475.425 45.13 474.901 44.9783 474.433 44.675C473.973 44.3717 473.609 43.96 473.341 43.44C473.072 42.92 472.938 42.3263 472.938 41.659C472.938 41.0003 473.072 40.411 473.341 39.891C473.609 39.3623 473.973 38.9507 474.433 38.656C474.892 38.3527 475.412 38.201 475.993 38.201C476.348 38.201 476.686 38.266 477.007 38.396C477.327 38.526 477.609 38.7037 477.852 38.929C478.103 39.1543 478.298 39.4143 478.437 39.709C478.584 39.995 478.658 40.294 478.658 40.606L478.385 40.411V35.77C478.385 35.666 478.419 35.575 478.489 35.497C478.567 35.419 478.662 35.38 478.775 35.38ZM476.071 44.402C476.539 44.402 476.946 44.285 477.293 44.051C477.648 43.8083 477.925 43.4833 478.125 43.076C478.333 42.66 478.437 42.1877 478.437 41.659C478.437 41.139 478.333 40.6753 478.125 40.268C477.925 39.852 477.648 39.527 477.293 39.293C476.937 39.0503 476.53 38.929 476.071 38.929C475.62 38.929 475.213 39.0503 474.849 39.293C474.493 39.527 474.212 39.852 474.004 40.268C473.804 40.6753 473.705 41.139 473.705 41.659C473.705 42.179 473.804 42.647 474.004 43.063C474.212 43.479 474.493 43.8083 474.849 44.051C475.213 44.285 475.62 44.402 476.071 44.402ZM490.213 35.38C490.326 35.38 490.417 35.419 490.486 35.497C490.564 35.5663 490.603 35.6573 490.603 35.77V44.61C490.603 44.714 490.564 44.805 490.486 44.883C490.408 44.961 490.317 45 490.213 45C490.101 45 490.005 44.961 489.927 44.883C489.858 44.805 489.823 44.714 489.823 44.61V43.063L490.044 42.881C490.044 43.1237 489.979 43.3793 489.849 43.648C489.719 43.908 489.533 44.1507 489.29 44.376C489.056 44.6013 488.779 44.7833 488.458 44.922C488.146 45.0607 487.808 45.13 487.444 45.13C486.864 45.13 486.339 44.9783 485.871 44.675C485.412 44.3717 485.048 43.96 484.779 43.44C484.511 42.92 484.376 42.3263 484.376 41.659C484.376 41.0003 484.511 40.411 484.779 39.891C485.048 39.3623 485.412 38.9507 485.871 38.656C486.331 38.3527 486.851 38.201 487.431 38.201C487.787 38.201 488.125 38.266 488.445 38.396C488.766 38.526 489.048 38.7037 489.29 38.929C489.542 39.1543 489.737 39.4143 489.875 39.709C490.023 39.995 490.096 40.294 490.096 40.606L489.823 40.411V35.77C489.823 35.666 489.858 35.575 489.927 35.497C490.005 35.419 490.101 35.38 490.213 35.38ZM487.509 44.402C487.977 44.402 488.385 44.285 488.731 44.051C489.087 43.8083 489.364 43.4833 489.563 43.076C489.771 42.66 489.875 42.1877 489.875 41.659C489.875 41.139 489.771 40.6753 489.563 40.268C489.364 39.852 489.087 39.527 488.731 39.293C488.376 39.0503 487.969 38.929 487.509 38.929C487.059 38.929 486.651 39.0503 486.287 39.293C485.932 39.527 485.65 39.852 485.442 40.268C485.243 40.6753 485.143 41.139 485.143 41.659C485.143 42.179 485.243 42.647 485.442 43.063C485.65 43.479 485.932 43.8083 486.287 44.051C486.651 44.285 487.059 44.402 487.509 44.402ZM498.097 38.357C498.21 38.357 498.301 38.396 498.37 38.474C498.448 38.552 498.487 38.6473 498.487 38.76V44.61C498.487 44.714 498.448 44.805 498.37 44.883C498.292 44.961 498.201 45 498.097 45C497.984 45 497.889 44.961 497.811 44.883C497.742 44.805 497.707 44.714 497.707 44.61V43.063L497.928 42.959C497.928 43.2017 497.859 43.4487 497.72 43.7C497.59 43.9513 497.408 44.1853 497.174 44.402C496.94 44.6187 496.663 44.7963 496.342 44.935C496.03 45.065 495.692 45.13 495.328 45.13C494.739 45.13 494.21 44.9783 493.742 44.675C493.283 44.3717 492.919 43.9557 492.65 43.427C492.39 42.8983 492.26 42.3047 492.26 41.646C492.26 40.97 492.394 40.3763 492.663 39.865C492.932 39.345 493.296 38.9377 493.755 38.643C494.214 38.3483 494.734 38.201 495.315 38.201C495.688 38.201 496.034 38.266 496.355 38.396C496.684 38.526 496.97 38.7037 497.213 38.929C497.456 39.1543 497.642 39.4143 497.772 39.709C497.911 39.995 497.98 40.294 497.98 40.606L497.707 40.411V38.76C497.707 38.6473 497.742 38.552 497.811 38.474C497.889 38.396 497.984 38.357 498.097 38.357ZM495.393 44.402C495.852 44.402 496.26 44.285 496.615 44.051C496.97 43.8083 497.248 43.479 497.447 43.063C497.655 42.6383 497.759 42.166 497.759 41.646C497.759 41.1347 497.655 40.6753 497.447 40.268C497.248 39.8607 496.97 39.5357 496.615 39.293C496.26 39.0503 495.852 38.929 495.393 38.929C494.942 38.929 494.535 39.046 494.171 39.28C493.816 39.514 493.534 39.8347 493.326 40.242C493.127 40.6493 493.027 41.1173 493.027 41.646C493.027 42.166 493.127 42.6383 493.326 43.063C493.534 43.479 493.816 43.8083 494.171 44.051C494.526 44.285 494.934 44.402 495.393 44.402ZM500.105 38.383H503.134C503.238 38.383 503.325 38.422 503.394 38.5C503.463 38.5693 503.498 38.656 503.498 38.76C503.498 38.8553 503.463 38.9377 503.394 39.007C503.325 39.0763 503.238 39.111 503.134 39.111H500.105C500.001 39.111 499.91 39.0763 499.832 39.007C499.763 38.929 499.728 38.8423 499.728 38.747C499.728 38.643 499.763 38.5563 499.832 38.487C499.91 38.4177 500.001 38.383 500.105 38.383ZM501.444 36.55C501.557 36.55 501.648 36.589 501.717 36.667C501.795 36.745 501.834 36.836 501.834 36.94V43.466C501.834 43.7087 501.864 43.8907 501.925 44.012C501.994 44.1333 502.081 44.2157 502.185 44.259C502.289 44.2937 502.393 44.311 502.497 44.311C502.566 44.311 502.627 44.3023 502.679 44.285C502.74 44.259 502.805 44.246 502.874 44.246C502.952 44.246 503.017 44.2763 503.069 44.337C503.13 44.3977 503.16 44.4757 503.16 44.571C503.16 44.6923 503.091 44.7963 502.952 44.883C502.813 44.961 502.649 45 502.458 45C502.38 45 502.263 44.9957 502.107 44.987C501.951 44.9697 501.791 44.922 501.626 44.844C501.461 44.7573 501.323 44.61 501.21 44.402C501.106 44.194 501.054 43.895 501.054 43.505V36.94C501.054 36.836 501.089 36.745 501.158 36.667C501.236 36.589 501.331 36.55 501.444 36.55ZM507.879 45.13C507.211 45.13 506.622 44.987 506.111 44.701C505.599 44.415 505.201 44.0163 504.915 43.505C504.629 42.9937 504.486 42.3957 504.486 41.711C504.486 40.9743 504.629 40.346 504.915 39.826C505.209 39.306 505.586 38.9073 506.046 38.63C506.514 38.344 507.008 38.201 507.528 38.201C507.909 38.201 508.277 38.2703 508.633 38.409C508.997 38.539 509.317 38.7383 509.595 39.007C509.881 39.267 510.106 39.5877 510.271 39.969C510.444 40.3503 510.539 40.7923 510.557 41.295C510.548 41.399 510.505 41.49 510.427 41.568C510.349 41.6373 510.258 41.672 510.154 41.672H504.941L504.785 40.97H509.907L509.738 41.126V40.866C509.703 40.4587 509.573 40.112 509.348 39.826C509.122 39.54 508.849 39.3233 508.529 39.176C508.208 39.0287 507.874 38.955 507.528 38.955C507.268 38.955 506.999 39.007 506.722 39.111C506.453 39.215 506.206 39.3797 505.981 39.605C505.764 39.8217 505.586 40.1033 505.448 40.45C505.309 40.788 505.24 41.191 505.24 41.659C505.24 42.1703 505.344 42.634 505.552 43.05C505.76 43.466 506.059 43.7953 506.449 44.038C506.847 44.2807 507.32 44.402 507.866 44.402C508.169 44.402 508.442 44.3587 508.685 44.272C508.927 44.1853 509.14 44.0727 509.322 43.934C509.504 43.7867 509.655 43.635 509.777 43.479C509.872 43.401 509.967 43.362 510.063 43.362C510.149 43.362 510.223 43.3967 510.284 43.466C510.353 43.5353 510.388 43.6133 510.388 43.7C510.388 43.804 510.344 43.895 510.258 43.973C509.998 44.285 509.66 44.558 509.244 44.792C508.828 45.0173 508.373 45.13 507.879 45.13Z" fill="#BEBEBE"/>
<path d="M581.068 12.2C581.581 12.2 582.043 12.326 582.454 12.578C582.865 12.83 583.187 13.1753 583.42 13.614C583.663 14.0527 583.784 14.552 583.784 15.112C583.784 15.6627 583.663 16.162 583.42 16.61C583.187 17.058 582.865 17.4127 582.454 17.674C582.043 17.9353 581.581 18.066 581.068 18.066H578.226L578.324 17.898V21.426C578.324 21.5847 578.273 21.72 578.17 21.832C578.067 21.944 577.937 22 577.778 22C577.61 22 577.475 21.944 577.372 21.832C577.279 21.72 577.232 21.5847 577.232 21.426V12.76C577.232 12.6013 577.283 12.4707 577.386 12.368C577.498 12.256 577.633 12.2 577.792 12.2H581.068ZM581.068 16.988C581.376 16.988 581.647 16.904 581.88 16.736C582.113 16.568 582.3 16.3393 582.44 16.05C582.58 15.7607 582.65 15.448 582.65 15.112C582.65 14.7573 582.58 14.4447 582.44 14.174C582.3 13.9033 582.113 13.6887 581.88 13.53C581.647 13.362 581.376 13.278 581.068 13.278H578.226L578.324 13.124V17.128L578.226 16.988H581.068ZM588.626 22.14C587.879 22.14 587.226 21.9813 586.666 21.664C586.106 21.3467 585.667 20.9127 585.35 20.362C585.042 19.802 584.888 19.158 584.888 18.43C584.888 17.618 585.047 16.9273 585.364 16.358C585.691 15.7793 586.111 15.3407 586.624 15.042C587.147 14.734 587.697 14.58 588.276 14.58C588.705 14.58 589.121 14.6593 589.522 14.818C589.923 14.9767 590.278 15.21 590.586 15.518C590.894 15.8167 591.141 16.1807 591.328 16.61C591.515 17.03 591.613 17.5013 591.622 18.024C591.622 18.1733 591.566 18.2993 591.454 18.402C591.342 18.5047 591.211 18.556 591.062 18.556H585.532L585.28 17.59H590.67L590.446 17.786V17.478C590.409 17.0953 590.278 16.7687 590.054 16.498C589.839 16.218 589.573 16.0033 589.256 15.854C588.948 15.7047 588.621 15.63 588.276 15.63C587.996 15.63 587.716 15.6813 587.436 15.784C587.165 15.8773 586.918 16.036 586.694 16.26C586.479 16.4747 586.302 16.7547 586.162 17.1C586.031 17.4453 585.966 17.8607 585.966 18.346C585.966 18.8873 586.073 19.3633 586.288 19.774C586.512 20.1847 586.82 20.5113 587.212 20.754C587.604 20.9873 588.061 21.104 588.584 21.104C588.911 21.104 589.195 21.062 589.438 20.978C589.681 20.894 589.891 20.7913 590.068 20.67C590.245 20.5393 590.395 20.4087 590.516 20.278C590.637 20.194 590.754 20.152 590.866 20.152C591.006 20.152 591.118 20.1987 591.202 20.292C591.295 20.3853 591.342 20.4973 591.342 20.628C591.342 20.7867 591.267 20.9267 591.118 21.048C590.857 21.3373 590.502 21.594 590.054 21.818C589.606 22.0327 589.13 22.14 588.626 22.14ZM600.18 18.36C600.18 19.088 600.016 19.7367 599.69 20.306C599.372 20.8753 598.938 21.3233 598.388 21.65C597.846 21.9767 597.235 22.14 596.554 22.14C595.872 22.14 595.256 21.9767 594.706 21.65C594.155 21.3233 593.716 20.8753 593.39 20.306C593.072 19.7367 592.914 19.088 592.914 18.36C592.914 17.632 593.072 16.9833 593.39 16.414C593.716 15.8447 594.155 15.3967 594.706 15.07C595.256 14.7433 595.872 14.58 596.554 14.58C597.235 14.58 597.846 14.7433 598.388 15.07C598.938 15.3967 599.372 15.8447 599.69 16.414C600.016 16.9833 600.18 17.632 600.18 18.36ZM599.06 18.36C599.06 17.8187 598.948 17.3427 598.724 16.932C598.509 16.5213 598.21 16.1993 597.828 15.966C597.454 15.7327 597.03 15.616 596.554 15.616C596.078 15.616 595.648 15.7327 595.266 15.966C594.892 16.1993 594.594 16.5213 594.37 16.932C594.146 17.3427 594.034 17.8187 594.034 18.36C594.034 18.892 594.146 19.3633 594.37 19.774C594.594 20.1847 594.892 20.5113 595.266 20.754C595.648 20.9873 596.078 21.104 596.554 21.104C597.03 21.104 597.454 20.9873 597.828 20.754C598.21 20.5113 598.509 20.1847 598.724 19.774C598.948 19.3633 599.06 18.892 599.06 18.36ZM605.434 14.65C606.069 14.65 606.638 14.8087 607.142 15.126C607.646 15.4433 608.043 15.882 608.332 16.442C608.631 17.002 608.78 17.646 608.78 18.374C608.78 19.0927 608.631 19.7367 608.332 20.306C608.043 20.866 607.646 21.3093 607.142 21.636C606.647 21.9533 606.087 22.112 605.462 22.112C605.117 22.112 604.79 22.0607 604.482 21.958C604.183 21.846 603.908 21.706 603.656 21.538C603.413 21.3607 603.208 21.1647 603.04 20.95C602.872 20.726 602.751 20.5067 602.676 20.292L602.984 20.096V24.226C602.984 24.3847 602.933 24.52 602.83 24.632C602.727 24.744 602.592 24.8 602.424 24.8C602.265 24.8 602.13 24.744 602.018 24.632C601.915 24.5293 601.864 24.394 601.864 24.226V15.28C601.864 15.1213 601.915 14.9907 602.018 14.888C602.13 14.776 602.265 14.72 602.424 14.72C602.592 14.72 602.727 14.776 602.83 14.888C602.933 14.9907 602.984 15.1213 602.984 15.28V16.526L602.774 16.414C602.839 16.1807 602.951 15.9567 603.11 15.742C603.278 15.5273 603.479 15.3407 603.712 15.182C603.955 15.014 604.221 14.8833 604.51 14.79C604.809 14.6967 605.117 14.65 605.434 14.65ZM605.308 15.686C604.841 15.686 604.426 15.8027 604.062 16.036C603.707 16.2693 603.427 16.5867 603.222 16.988C603.026 17.3893 602.928 17.8513 602.928 18.374C602.928 18.8873 603.026 19.3493 603.222 19.76C603.427 20.1707 603.707 20.4927 604.062 20.726C604.426 20.9593 604.841 21.076 605.308 21.076C605.775 21.076 606.185 20.9593 606.54 20.726C606.895 20.4927 607.175 20.1707 607.38 19.76C607.585 19.3493 607.688 18.8873 607.688 18.374C607.688 17.8513 607.585 17.3893 607.38 16.988C607.175 16.5867 606.895 16.2693 606.54 16.036C606.185 15.8027 605.775 15.686 605.308 15.686ZM611.696 21.426C611.696 21.5847 611.64 21.72 611.528 21.832C611.416 21.944 611.28 22 611.122 22C610.963 22 610.832 21.944 610.73 21.832C610.627 21.72 610.576 21.5847 610.576 21.426V12.2C610.576 12.0413 610.627 11.9107 610.73 11.808C610.842 11.696 610.977 11.64 611.136 11.64C611.304 11.64 611.439 11.696 611.542 11.808C611.644 11.9107 611.696 12.0413 611.696 12.2V21.426ZM617.077 22.14C616.331 22.14 615.677 21.9813 615.117 21.664C614.557 21.3467 614.119 20.9127 613.801 20.362C613.493 19.802 613.339 19.158 613.339 18.43C613.339 17.618 613.498 16.9273 613.815 16.358C614.142 15.7793 614.562 15.3407 615.075 15.042C615.598 14.734 616.149 14.58 616.727 14.58C617.157 14.58 617.572 14.6593 617.973 14.818C618.375 14.9767 618.729 15.21 619.037 15.518C619.345 15.8167 619.593 16.1807 619.779 16.61C619.966 17.03 620.064 17.5013 620.073 18.024C620.073 18.1733 620.017 18.2993 619.905 18.402C619.793 18.5047 619.663 18.556 619.513 18.556H613.983L613.731 17.59H619.121L618.897 17.786V17.478C618.86 17.0953 618.729 16.7687 618.505 16.498C618.291 16.218 618.025 16.0033 617.707 15.854C617.399 15.7047 617.073 15.63 616.727 15.63C616.447 15.63 616.167 15.6813 615.887 15.784C615.617 15.8773 615.369 16.036 615.145 16.26C614.931 16.4747 614.753 16.7547 614.613 17.1C614.483 17.4453 614.417 17.8607 614.417 18.346C614.417 18.8873 614.525 19.3633 614.739 19.774C614.963 20.1847 615.271 20.5113 615.663 20.754C616.055 20.9873 616.513 21.104 617.035 21.104C617.362 21.104 617.647 21.062 617.889 20.978C618.132 20.894 618.342 20.7913 618.519 20.67C618.697 20.5393 618.846 20.4087 618.967 20.278C619.089 20.194 619.205 20.152 619.317 20.152C619.457 20.152 619.569 20.1987 619.653 20.292C619.747 20.3853 619.793 20.4973 619.793 20.628C619.793 20.7867 619.719 20.9267 619.569 21.048C619.308 21.3373 618.953 21.594 618.505 21.818C618.057 22.0327 617.581 22.14 617.077 22.14Z" fill="#161117"/>
<path d="M580.264 36.901L577.105 44.753C577.07 44.8397 577.023 44.9047 576.962 44.948C576.901 44.9913 576.832 45.013 576.754 45.013C576.633 45.013 576.542 44.9827 576.481 44.922C576.42 44.8527 576.386 44.7703 576.377 44.675C576.368 44.6317 576.373 44.5797 576.39 44.519L579.822 36.121C579.865 36.0257 579.917 35.9607 579.978 35.926C580.047 35.8827 580.125 35.861 580.212 35.861C580.299 35.861 580.372 35.887 580.433 35.939C580.502 35.9823 580.554 36.043 580.589 36.121L584.008 44.48C584.025 44.532 584.034 44.584 584.034 44.636C584.034 44.7573 583.995 44.8527 583.917 44.922C583.839 44.9827 583.748 45.013 583.644 45.013C583.557 45.013 583.479 44.9913 583.41 44.948C583.349 44.896 583.302 44.831 583.267 44.753L580.03 36.849L580.264 36.901ZM577.859 42.374L578.184 41.607H582.214L582.37 42.374H577.859ZM590.891 35.38C591.004 35.38 591.095 35.419 591.164 35.497C591.242 35.5663 591.281 35.6573 591.281 35.77V44.61C591.281 44.714 591.242 44.805 591.164 44.883C591.086 44.961 590.995 45 590.891 45C590.778 45 590.683 44.961 590.605 44.883C590.536 44.805 590.501 44.714 590.501 44.61V43.063L590.722 42.881C590.722 43.1237 590.657 43.3793 590.527 43.648C590.397 43.908 590.211 44.1507 589.968 44.376C589.734 44.6013 589.457 44.7833 589.136 44.922C588.824 45.0607 588.486 45.13 588.122 45.13C587.541 45.13 587.017 44.9783 586.549 44.675C586.09 44.3717 585.726 43.96 585.457 43.44C585.188 42.92 585.054 42.3263 585.054 41.659C585.054 41.0003 585.188 40.411 585.457 39.891C585.726 39.3623 586.09 38.9507 586.549 38.656C587.008 38.3527 587.528 38.201 588.109 38.201C588.464 38.201 588.802 38.266 589.123 38.396C589.444 38.526 589.725 38.7037 589.968 38.929C590.219 39.1543 590.414 39.4143 590.553 39.709C590.7 39.995 590.774 40.294 590.774 40.606L590.501 40.411V35.77C590.501 35.666 590.536 35.575 590.605 35.497C590.683 35.419 590.778 35.38 590.891 35.38ZM588.187 44.402C588.655 44.402 589.062 44.285 589.409 44.051C589.764 43.8083 590.042 43.4833 590.241 43.076C590.449 42.66 590.553 42.1877 590.553 41.659C590.553 41.139 590.449 40.6753 590.241 40.268C590.042 39.852 589.764 39.527 589.409 39.293C589.054 39.0503 588.646 38.929 588.187 38.929C587.736 38.929 587.329 39.0503 586.965 39.293C586.61 39.527 586.328 39.852 586.12 40.268C585.921 40.6753 585.821 41.139 585.821 41.659C585.821 42.179 585.921 42.647 586.12 43.063C586.328 43.479 586.61 43.8083 586.965 44.051C587.329 44.285 587.736 44.402 588.187 44.402ZM598.775 35.38C598.887 35.38 598.978 35.419 599.048 35.497C599.126 35.5663 599.165 35.6573 599.165 35.77V44.61C599.165 44.714 599.126 44.805 599.048 44.883C598.97 44.961 598.879 45 598.775 45C598.662 45 598.567 44.961 598.489 44.883C598.419 44.805 598.385 44.714 598.385 44.61V43.063L598.606 42.881C598.606 43.1237 598.541 43.3793 598.411 43.648C598.281 43.908 598.094 44.1507 597.852 44.376C597.618 44.6013 597.34 44.7833 597.02 44.922C596.708 45.0607 596.37 45.13 596.006 45.13C595.425 45.13 594.901 44.9783 594.433 44.675C593.973 44.3717 593.609 43.96 593.341 43.44C593.072 42.92 592.938 42.3263 592.938 41.659C592.938 41.0003 593.072 40.411 593.341 39.891C593.609 39.3623 593.973 38.9507 594.433 38.656C594.892 38.3527 595.412 38.201 595.993 38.201C596.348 38.201 596.686 38.266 597.007 38.396C597.327 38.526 597.609 38.7037 597.852 38.929C598.103 39.1543 598.298 39.4143 598.437 39.709C598.584 39.995 598.658 40.294 598.658 40.606L598.385 40.411V35.77C598.385 35.666 598.419 35.575 598.489 35.497C598.567 35.419 598.662 35.38 598.775 35.38ZM596.071 44.402C596.539 44.402 596.946 44.285 597.293 44.051C597.648 43.8083 597.925 43.4833 598.125 43.076C598.333 42.66 598.437 42.1877 598.437 41.659C598.437 41.139 598.333 40.6753 598.125 40.268C597.925 39.852 597.648 39.527 597.293 39.293C596.937 39.0503 596.53 38.929 596.071 38.929C595.62 38.929 595.213 39.0503 594.849 39.293C594.493 39.527 594.212 39.852 594.004 40.268C593.804 40.6753 593.705 41.139 593.705 41.659C593.705 42.179 593.804 42.647 594.004 43.063C594.212 43.479 594.493 43.8083 594.849 44.051C595.213 44.285 595.62 44.402 596.071 44.402ZM607.535 38.201C607.925 38.201 608.285 38.2703 608.614 38.409C608.944 38.539 609.23 38.7123 609.472 38.929C609.724 39.137 609.919 39.3623 610.057 39.605C610.196 39.839 610.265 40.0643 610.265 40.281L610.044 39.969V38.76C610.044 38.6473 610.079 38.552 610.148 38.474C610.226 38.396 610.322 38.357 610.434 38.357C610.556 38.357 610.651 38.396 610.72 38.474C610.79 38.552 610.824 38.6473 610.824 38.76V44.389C610.824 45.0823 610.681 45.6673 610.395 46.144C610.109 46.6207 609.719 46.9803 609.225 47.223C608.74 47.4743 608.185 47.6 607.561 47.6C607.258 47.6 606.937 47.561 606.599 47.483C606.27 47.405 605.984 47.3053 605.741 47.184C605.507 47.0627 605.377 46.937 605.351 46.807C605.282 46.729 605.247 46.651 605.247 46.573C605.256 46.5037 605.295 46.443 605.364 46.391C605.451 46.3303 605.542 46.3217 605.637 46.365C605.733 46.417 605.876 46.482 606.066 46.56C606.153 46.586 606.27 46.625 606.417 46.677C606.565 46.729 606.738 46.7723 606.937 46.807C607.145 46.8503 607.362 46.872 607.587 46.872C608.367 46.872 608.97 46.6467 609.394 46.196C609.828 45.754 610.044 45.169 610.044 44.441V43.193L610.187 43.232C610.109 43.544 609.979 43.817 609.797 44.051C609.624 44.285 609.416 44.4843 609.173 44.649C608.931 44.805 608.666 44.922 608.38 45C608.103 45.0867 607.826 45.13 607.548 45.13C606.95 45.13 606.413 44.9783 605.936 44.675C605.46 44.3717 605.078 43.96 604.792 43.44C604.515 42.92 604.376 42.3263 604.376 41.659C604.376 41.0003 604.515 40.411 604.792 39.891C605.078 39.3623 605.455 38.9507 605.923 38.656C606.4 38.3527 606.937 38.201 607.535 38.201ZM607.626 38.929C607.15 38.929 606.721 39.0503 606.339 39.293C605.967 39.527 605.672 39.852 605.455 40.268C605.247 40.6753 605.143 41.139 605.143 41.659C605.143 42.179 605.247 42.647 605.455 43.063C605.672 43.479 605.967 43.8083 606.339 44.051C606.721 44.285 607.15 44.402 607.626 44.402C608.103 44.402 608.528 44.285 608.9 44.051C609.273 43.817 609.568 43.4963 609.784 43.089C610.001 42.673 610.109 42.1963 610.109 41.659C610.109 41.1217 610.001 40.6493 609.784 40.242C609.568 39.826 609.273 39.5053 608.9 39.28C608.528 39.046 608.103 38.929 607.626 38.929ZM617.743 38.396C617.856 38.396 617.947 38.435 618.016 38.513C618.094 38.591 618.133 38.682 618.133 38.786V42.452C618.133 43.31 617.89 43.9643 617.405 44.415C616.92 44.8657 616.265 45.091 615.442 45.091C614.627 45.091 613.977 44.8657 613.492 44.415C613.015 43.9643 612.777 43.31 612.777 42.452V38.786C612.777 38.682 612.812 38.591 612.881 38.513C612.959 38.435 613.054 38.396 613.167 38.396C613.28 38.396 613.371 38.435 613.44 38.513C613.518 38.591 613.557 38.682 613.557 38.786V42.452C613.557 43.076 613.722 43.5527 614.051 43.882C614.389 44.2027 614.853 44.363 615.442 44.363C616.04 44.363 616.508 44.2027 616.846 43.882C617.184 43.5527 617.353 43.076 617.353 42.452V38.786C617.353 38.682 617.388 38.591 617.457 38.513C617.526 38.435 617.622 38.396 617.743 38.396ZM623.181 45.13C622.514 45.13 621.925 44.987 621.413 44.701C620.902 44.415 620.503 44.0163 620.217 43.505C619.931 42.9937 619.788 42.3957 619.788 41.711C619.788 40.9743 619.931 40.346 620.217 39.826C620.512 39.306 620.889 38.9073 621.348 38.63C621.816 38.344 622.31 38.201 622.83 38.201C623.212 38.201 623.58 38.2703 623.935 38.409C624.299 38.539 624.62 38.7383 624.897 39.007C625.183 39.267 625.409 39.5877 625.573 39.969C625.747 40.3503 625.842 40.7923 625.859 41.295C625.851 41.399 625.807 41.49 625.729 41.568C625.651 41.6373 625.56 41.672 625.456 41.672H620.243L620.087 40.97H625.209L625.04 41.126V40.866C625.006 40.4587 624.876 40.112 624.65 39.826C624.425 39.54 624.152 39.3233 623.831 39.176C623.511 39.0287 623.177 38.955 622.83 38.955C622.57 38.955 622.302 39.007 622.024 39.111C621.756 39.215 621.509 39.3797 621.283 39.605C621.067 39.8217 620.889 40.1033 620.75 40.45C620.612 40.788 620.542 41.191 620.542 41.659C620.542 42.1703 620.646 42.634 620.854 43.05C621.062 43.466 621.361 43.7953 621.751 44.038C622.15 44.2807 622.622 44.402 623.168 44.402C623.472 44.402 623.745 44.3587 623.987 44.272C624.23 44.1853 624.442 44.0727 624.624 43.934C624.806 43.7867 624.958 43.635 625.079 43.479C625.175 43.401 625.27 43.362 625.365 43.362C625.452 43.362 625.526 43.3967 625.586 43.466C625.656 43.5353 625.69 43.6133 625.69 43.7C625.69 43.804 625.647 43.895 625.56 43.973C625.3 44.285 624.962 44.558 624.546 44.792C624.13 45.0173 623.675 45.13 623.181 45.13ZM627.152 43.947C627.083 43.843 627.048 43.7433 627.048 43.648C627.057 43.544 627.113 43.4617 627.217 43.401C627.286 43.3403 627.364 43.3143 627.451 43.323C627.546 43.3317 627.633 43.375 627.711 43.453C627.945 43.7563 628.227 44.0033 628.556 44.194C628.894 44.376 629.293 44.467 629.752 44.467C629.995 44.467 630.233 44.428 630.467 44.35C630.71 44.2633 630.909 44.1377 631.065 43.973C631.221 43.7997 631.299 43.583 631.299 43.323C631.299 43.0543 631.221 42.8377 631.065 42.673C630.909 42.5083 630.705 42.3783 630.454 42.283C630.211 42.1877 629.951 42.1053 629.674 42.036C629.379 41.958 629.093 41.8713 628.816 41.776C628.539 41.672 628.292 41.5463 628.075 41.399C627.867 41.243 627.698 41.0567 627.568 40.84C627.438 40.6233 627.373 40.359 627.373 40.047C627.373 39.683 627.473 39.3623 627.672 39.085C627.871 38.8077 628.14 38.591 628.478 38.435C628.825 38.279 629.215 38.201 629.648 38.201C629.865 38.201 630.099 38.2313 630.35 38.292C630.601 38.344 630.848 38.435 631.091 38.565C631.334 38.695 631.55 38.8727 631.741 39.098C631.819 39.176 631.858 39.267 631.858 39.371C631.858 39.4663 631.815 39.553 631.728 39.631C631.659 39.683 631.576 39.709 631.481 39.709C631.394 39.709 631.321 39.6743 631.26 39.605C631.052 39.371 630.805 39.1933 630.519 39.072C630.233 38.9507 629.925 38.89 629.596 38.89C629.345 38.89 629.106 38.9333 628.881 39.02C628.664 39.098 628.482 39.2193 628.335 39.384C628.188 39.5487 628.114 39.7653 628.114 40.034C628.131 40.2853 628.218 40.489 628.374 40.645C628.539 40.801 628.751 40.931 629.011 41.035C629.28 41.139 629.579 41.2343 629.908 41.321C630.185 41.3903 630.45 41.4727 630.701 41.568C630.961 41.6633 631.186 41.7847 631.377 41.932C631.576 42.0707 631.732 42.2483 631.845 42.465C631.966 42.6817 632.027 42.9547 632.027 43.284C632.027 43.6653 631.919 43.9947 631.702 44.272C631.494 44.5493 631.212 44.7617 630.857 44.909C630.502 45.0563 630.107 45.13 629.674 45.13C629.206 45.13 628.751 45.039 628.309 44.857C627.876 44.675 627.49 44.3717 627.152 43.947ZM633.194 38.383H636.223C636.327 38.383 636.413 38.422 636.483 38.5C636.552 38.5693 636.587 38.656 636.587 38.76C636.587 38.8553 636.552 38.9377 636.483 39.007C636.413 39.0763 636.327 39.111 636.223 39.111H633.194C633.09 39.111 632.999 39.0763 632.921 39.007C632.851 38.929 632.817 38.8423 632.817 38.747C632.817 38.643 632.851 38.5563 632.921 38.487C632.999 38.4177 633.09 38.383 633.194 38.383ZM634.533 36.55C634.645 36.55 634.736 36.589 634.806 36.667C634.884 36.745 634.923 36.836 634.923 36.94V43.466C634.923 43.7087 634.953 43.8907 635.014 44.012C635.083 44.1333 635.17 44.2157 635.274 44.259C635.378 44.2937 635.482 44.311 635.586 44.311C635.655 44.311 635.716 44.3023 635.768 44.285C635.828 44.259 635.893 44.246 635.963 44.246C636.041 44.246 636.106 44.2763 636.158 44.337C636.218 44.3977 636.249 44.4757 636.249 44.571C636.249 44.6923 636.179 44.7963 636.041 44.883C635.902 44.961 635.737 45 635.547 45C635.469 45 635.352 44.9957 635.196 44.987C635.04 44.9697 634.879 44.922 634.715 44.844C634.55 44.7573 634.411 44.61 634.299 44.402C634.195 44.194 634.143 43.895 634.143 43.505V36.94C634.143 36.836 634.177 36.745 634.247 36.667C634.325 36.589 634.42 36.55 634.533 36.55Z" fill="#BEBEBE"/>
<line x1="308" y1="43" x2="308" y2="11.9839" stroke="#E9E9E9"/>
<line x1="434.5" y1="42" x2="434.5" y2="10.9839" stroke="#E9E9E9"/>
<line x1="570.5" y1="43" x2="570.5" y2="11.9839" stroke="#E9E9E9"/>
<rect x="684" y="8" width="42" height="42" rx="21" fill="#FFA800"/>
<circle cx="704.583" cy="28.5834" r="7.91667" stroke="white" stroke-width="1.25"/>
<path d="M710.417 34.4167L713.333 37.3334" stroke="white" stroke-width="1.25" stroke-linecap="round"/>
</svg>
